SplineFontDB: 3.0
FontName: AX28ScriptMellow
FullName: AX28ScriptMellow
FamilyName: AX28Script
Weight: Mellow
Copyright: Created by Ludi,,, with FontForge 2.0 (http://fontforge.sf.net)
UComments: "2013-10-18: Created." 
Version: 2
ItalicAngle: 0
UnderlinePosition: -100
UnderlineWidth: 50
Ascent: 800
Descent: 200
LayerCount: 2
Layer: 0 0 "Back"  1
Layer: 1 0 "Fore"  0
XUID: [1021 619 1067718245 15906096]
FSType: 0
OS2Version: 0
OS2_WeightWidthSlopeOnly: 0
OS2_UseTypoMetrics: 1
CreationTime: 1382105846
ModificationTime: 1385053809
OS2TypoAscent: 0
OS2TypoAOffset: 1
OS2TypoDescent: 0
OS2TypoDOffset: 1
OS2TypoLinegap: 90
OS2WinAscent: 0
OS2WinAOffset: 1
OS2WinDescent: 0
OS2WinDOffset: 1
HheadAscent: 0
HheadAOffset: 1
HheadDescent: 0
HheadDOffset: 1
MarkAttachClasses: 1
DEI: 91125
Encoding: ISO8859-1
UnicodeInterp: none
NameList: Adobe Glyph List
DisplaySize: -48
AntiAlias: 1
FitToEm: 1
WidthSeparation: 55
WinInfo: 25 25 10
BeginPrivate: 0
EndPrivate
Grid
-1000 -20 m 0
 2000 -20 l 0
  Named: "rondes-down" 
EndSplineSet
BeginChars: 256 40

StartChar: a
Encoding: 97 97 0
Width: 621
VWidth: 0
Flags: HW
LayerCount: 2
UndoRedoHistory
Layer: 1
Undoes
EndUndoes
Redoes
EndRedoes
EndUndoRedoHistory
Fore
SplineSet
62.5654296875 300.715820312 m 0
 35.82421875 250.759765625 21.1728515625 193.333984375 27.4384765625 137.018554688 c 0
 30.9208984375 105.724609375 40.9423828125 74.900390625 58.55859375 48.802734375 c 0
 76.1728515625 22.7099609375 101.637695312 1.529296875 131.416992188 -8.685546875 c 0
 152.754882812 -16.0048828125 175.83984375 -17.6083984375 198.228515625 -14.85546875 c 0
 220.618164062 -12.1025390625 242.348632812 -5.0830078125 262.830078125 4.369140625 c 0
 303.793945312 23.275390625 339.53125 51.5927734375 376.111328125 78 c 0
 384.9140625 84.3544921875 393.830078125 90.6474609375 401.5859375 98.24609375 c 0
 409.340820312 105.844726562 415.958007812 114.892578125 419.182617188 125.260742188 c 0
 420.794921875 130.444335938 421.536132812 135.919921875 421.130859375 141.333984375 c 0
 420.7265625 146.748046875 419.16015625 152.096679688 416.383789062 156.76171875 c 0
 413.608398438 161.427734375 409.606445312 165.390625 404.805664062 167.92578125 c 0
 400.004882812 170.4609375 394.407226562 171.53125 389.038085938 170.728515625 c 0
 382.030273438 169.680664062 375.784179688 165.559570312 370.850585938 160.474609375 c 0
 365.916015625 155.388671875 362.115234375 149.338867188 358.221679688 143.418945312 c 0
 334.63671875 107.5546875 305.42578125 74.0712890625 267.506835938 53.9541015625 c 0
 246.971679688 43.060546875 223.940429688 36.3056640625 200.69921875 36.7275390625 c 0
 177.45703125 37.1494140625 154.041015625 45.1005859375 136.780273438 60.669921875 c 0
 118.587890625 77.078125 108.221679688 100.901367188 104.600585938 125.131835938 c 0
 100.978515625 149.361328125 103.6171875 174.120117188 108.182617188 198.189453125 c 0
 117.235351562 245.909179688 134.017578125 292.4296875 160.103515625 333.401367188 c 0
 186.189453125 374.373046875 221.78125 409.671875 264.458984375 432.861328125 c 0
 278.616210938 440.5546875 293.65625 446.952148438 309.524414062 449.745117188 c 0
 325.392578125 452.538085938 342.197265625 451.55859375 356.918945312 445.010742188 c 0
 368.47265625 439.872070312 378.424804688 431.501953125 390.202148438 426.899414062 c 0
 396.090820312 424.59765625 402.473632812 423.275390625 408.755859375 423.98828125 c 0
 415.038085938 424.700195312 421.209960938 427.602539062 425.106445312 432.58203125 c 0
 428.57421875 437.01171875 430.0390625 442.849609375 429.546875 448.453125 c 0
 429.0546875 454.057617188 426.692382812 459.412109375 423.267578125 463.874023438 c 0
 416.416015625 472.798828125 405.770507812 477.959960938 395.12890625 481.61328125 c 0
 357.931640625 494.385742188 316.809570312 492.217773438 278.93359375 481.626953125 c 0
 185.58984375 455.526367188 104.805664062 379.623046875 62.5654296875 300.715820312 c 0
411.364257812 43.384765625 m 0
 406.921875 48.111328125 404.083007812 54.2265625 402.840820312 60.591796875 c 0
 401.598632812 66.9580078125 401.90625 73.568359375 403.234375 79.9169921875 c 0
 405.890625 92.61328125 412.473632812 104.0859375 418.875 115.368164062 c 0
 469.104492188 203.893554688 514.00390625 295.635742188 549.0703125 391.1875 c 0
 554.895507812 407.060546875 560.508789062 423.35546875 560.959960938 440.2578125 c 0
 561.184570312 448.708007812 560.084960938 457.248046875 557.155273438 465.177734375 c 0
 554.224609375 473.107421875 549.416992188 480.415039062 542.90234375 485.802734375 c 0
 537.077148438 490.619140625 529.943359375 493.833984375 522.479492188 495.022460938 c 0
 515.014648438 496.209960938 507.239257812 495.369140625 500.196289062 492.625976562 c 0
 493.153320312 489.881835938 486.860351562 485.245117188 482.142578125 479.340820312 c 0
 477.424804688 473.435546875 474.291992188 466.27734375 473.141601562 458.807617188 c 0
 471.798828125 450.083984375 473.12109375 441.202148438 473.38671875 432.379882812 c 0
 474.30859375 401.756835938 462.529296875 372.3515625 451.018554688 343.959960938 c 0
 424.931640625 279.612304688 399.0859375 214.873046875 364.501953125 154.665039062 c 0
 355.827148438 139.561523438 346.576171875 124.69140625 340.017578125 108.556640625 c 0
 333.458007812 92.4208984375 329.669921875 74.705078125 332.478515625 57.515625 c 0
 334.392578125 45.8056640625 339.3515625 34.65234375 346.453125 25.146484375 c 0
 353.5546875 15.6396484375 362.765625 7.76953125 373.071289062 1.8896484375 c 0
 393.684570312 -9.87109375 418.291015625 -13.4873046875 441.912109375 -11.203125 c 0
 489.154296875 -6.634765625 530.940429688 19.796875 572.595703125 42.5478515625 c 0
 577.967773438 45.4814453125 583.46875 48.44140625 587.66015625 52.90234375 c 0
 589.754882812 55.1328125 591.494140625 57.73046875 592.526367188 60.611328125 c 0
 593.55859375 63.4921875 593.860351562 66.6669921875 593.150390625 69.6435546875 c 0
 592.590820312 71.9931640625 591.41015625 74.181640625 589.81640625 75.99609375 c 0
 588.221679688 77.8095703125 586.220703125 79.2529296875 584.029296875 80.26953125 c 0
 579.647460938 82.3017578125 574.591796875 82.5966796875 569.841796875 81.7158203125 c 0
 560.34375 79.9541015625 552.331054688 73.875 544.166992188 68.7099609375 c 0
 523.236328125 55.4677734375 499.4765625 47.5087890625 475.958007812 39.744140625 c 0
 465.110351562 36.1640625 454.076171875 32.564453125 442.659179688 32.1806640625 c 0
 436.951171875 31.9892578125 431.182617188 32.6201171875 425.76171875 34.4208984375 c 0
 420.341796875 36.22265625 415.275390625 39.22265625 411.364257812 43.384765625 c 0
EndSplineSet
Validated: 524325
EndChar

StartChar: b
Encoding: 98 98 1
Width: 673
VWidth: 0
Flags: HW
LayerCount: 2
UndoRedoHistory
Layer: 1
Undoes
EndUndoes
Redoes
EndRedoes
EndUndoRedoHistory
Fore
SplineSet
346.133789062 6.9365234375 m 0
 320.809570312 -7.2890625 292.817382812 -17.3837890625 263.853515625 -19.5791015625 c 0
 234.890625 -21.7734375 204.905273438 -15.70703125 180.547851562 0.1171875 c 0
 153.568359375 17.64453125 134.940429688 46.107421875 124.666015625 76.5966796875 c 0
 114.392578125 107.0859375 111.86328125 139.657226562 111.905273438 171.831054688 c 0
 112.073242188 302.810546875 153.55859375 430.854492188 210.91796875 548.606445312 c 0
 249.840820312 628.509765625 297.48828125 706.274414062 365.732421875 763.21484375 c 0
 381.138671875 776.069335938 397.787109375 787.9296875 416.701171875 794.626953125 c 0
 435.614257812 801.32421875 457.159179688 802.42578125 475.416992188 794.104492188 c 0
 493.665039062 785.788085938 506.970703125 768.806640625 514.241210938 750.1171875 c 0
 521.51171875 731.427734375 523.30859375 711.055664062 523.35546875 691.001953125 c 0
 523.591796875 588.31640625 480.0390625 490.296875 425.928710938 403.024414062 c 0
 338.610351562 262.190429688 221.166015625 139.78515625 82.4873046875 49.08203125 c 0
 75.01171875 44.1923828125 67.2958984375 39.3154296875 58.6142578125 37.21484375 c 0
 54.2724609375 36.1650390625 49.7236328125 35.8388671875 45.322265625 36.6015625 c 0
 40.921875 37.36328125 36.6748046875 39.248046875 33.3740234375 42.2568359375 c 0
 28.4443359375 46.7509765625 25.92578125 53.5576171875 26.001953125 60.228515625 c 0
 26.078125 66.8994140625 28.5869140625 73.4033203125 32.3974609375 78.8798828125 c 0
 40.017578125 89.83203125 52.23046875 96.4912109375 63.8759765625 103.001953125 c 0
 118.588867188 133.58984375 170.517578125 169.421875 216.953125 211.526367188 c 0
 298.079101562 285.0859375 361.368164062 376.918945312 409.45703125 475.3046875 c 0
 446.290039062 550.663085938 474.973632812 633.026367188 469.358398438 716.716796875 c 0
 468.982421875 722.322265625 468.4375 727.987304688 466.55078125 733.279296875 c 0
 464.663085938 738.571289062 461.286132812 743.520507812 456.384765625 746.267578125 c 0
 453.71875 747.762695312 450.686523438 748.55859375 447.635742188 748.739257812 c 0
 444.584960938 748.919921875 441.513671875 748.497070312 438.572265625 747.666015625 c 0
 432.689453125 746.004882812 427.388671875 742.762695312 422.31640625 739.350585938 c 0
 389.99609375 717.611328125 363.842773438 687.668945312 342.39453125 655.155273438 c 0
 320.947265625 622.640625 303.943359375 587.440429688 287.1640625 552.2890625 c 0
 228.59765625 429.590820312 170.6953125 300.18359375 175.46484375 164.30859375 c 0
 176.134765625 145.236328125 178.076171875 126.072265625 183.548828125 107.7890625 c 0
 189.020507812 89.505859375 198.186523438 72.0546875 211.8359375 58.716796875 c 0
 226.13671875 44.7431640625 245.03125 35.7451171875 264.76953125 32.5517578125 c 0
 284.506835938 29.3583984375 305.016601562 31.859375 323.75 38.8466796875 c 0
 348.993164062 48.26171875 370.962890625 65.7392578125 386.8828125 87.4736328125 c 0
 402.803710938 109.208007812 412.766601562 135.071289062 416.857421875 161.701171875 c 0
 417.368164062 165.028320312 417.791015625 168.384765625 417.72265625 171.750976562 c 0
 417.654296875 175.1171875 417.080078125 178.509765625 415.671875 181.568359375 c 0
 414.264648438 184.625976562 411.98046875 187.337890625 409.009765625 188.922851562 c 0
 407.525390625 189.71484375 405.880859375 190.219726562 404.203125 190.34765625 c 0
 402.524414062 190.475585938 400.8125 190.223632812 399.259765625 189.572265625 c 0
 397.5078125 188.8359375 395.982421875 187.6015625 394.810546875 186.103515625 c 0
 393.638671875 184.606445312 392.814453125 182.853515625 392.302734375 181.022460938 c 0
 391.279296875 177.361328125 391.5 173.463867188 392.090820312 169.708007812 c 0
 394.142578125 156.676757812 400.549804688 144.595703125 408.950195312 134.424804688 c 0
 417.350585938 124.25390625 427.702148438 115.86328125 438.479492188 108.254882812 c 0
 463.0078125 90.9384765625 490.43359375 77.2177734375 519.80859375 71.001953125 c 0
 549.182617188 64.7861328125 580.619140625 66.3916015625 608.133789062 78.4091796875 c 0
 614.005859375 80.9736328125 619.787109375 84.02734375 626.116210938 85.021484375 c 0
 629.28125 85.5185546875 632.5625 85.4775390625 635.640625 84.58984375 c 0
 638.719726562 83.7021484375 641.584960938 81.931640625 643.51953125 79.3779296875 c 0
 645.598632812 76.630859375 646.506835938 73.0849609375 646.299804688 69.646484375 c 0
 646.091796875 66.20703125 644.81640625 62.8798828125 642.920898438 60.0029296875 c 0
 639.130859375 54.2490234375 633.086914062 50.408203125 627.04296875 47.099609375 c 0
 594.493164062 29.2802734375 556.557617188 21.9677734375 519.552734375 24.72265625 c 0
 482.546875 27.4765625 446.522460938 40.1025390625 414.955078125 59.6083984375 c 0
 395.260742188 71.7783203125 377.028320312 86.8115234375 363.565429688 105.64453125 c 0
 350.102539062 124.478515625 341.634765625 147.352539062 342.364257812 170.4921875 c 0
 342.697265625 181.06640625 344.94921875 191.62109375 349.372070312 201.231445312 c 0
 353.795898438 210.841796875 360.420898438 219.48828125 368.827148438 225.913085938 c 0
 377.280273438 232.373046875 387.549804688 236.532226562 398.158203125 237.3359375 c 0
 408.767578125 238.138671875 419.676757812 235.512695312 428.524414062 229.603515625 c 0
 438.44140625 222.98046875 445.427734375 212.532226562 449.287109375 201.248046875 c 0
 453.146484375 189.96484375 454.061523438 177.852539062 453.580078125 165.936523438 c 0
 452.231445312 132.548828125 440 99.9765625 420.709960938 72.69140625 c 0
 401.419921875 45.4072265625 375.267578125 23.302734375 346.133789062 6.9365234375 c 0
EndSplineSet
Validated: 524325
EndChar

StartChar: c
Encoding: 99 99 2
Width: 591
VWidth: 0
Flags: HW
LayerCount: 2
UndoRedoHistory
Layer: 1
Undoes
EndUndoes
Redoes
EndRedoes
EndUndoRedoHistory
Fore
SplineSet
50.052734375 76.3984375 m 4
 64.484375 54.9541015625 83.3583984375 36.513671875 105.131835938 22.583984375 c 4
 126.944335938 8.6279296875 151.463867188 -0.7373046875 176.583984375 -7.0263671875 c 4
 231.260742188 -20.7177734375 288.809570312 -20.0322265625 344.483398438 -11.23046875 c 4
 400.166015625 -2.4267578125 454.260742188 14.310546875 507.78125 32.01953125 c 4
 523.564453125 37.2421875 539.962890625 42.951171875 551.513671875 54.908203125 c 4
 557.2890625 60.88671875 561.65234375 68.396484375 563.081054688 76.5849609375 c 4
 564.509765625 84.7734375 562.810546875 93.634765625 557.724609375 100.209960938 c 4
 552.639648438 106.78515625 544.521484375 110.6484375 536.252929688 111.500976562 c 4
 527.985351562 112.353515625 519.59765625 110.392578125 512.036132812 106.939453125 c 4
 496.915039062 100.033203125 485.1796875 87.5859375 471.997070312 77.4580078125 c 4
 435.2734375 49.24609375 387.840820312 39.447265625 341.852539062 34 c 4
 304.3125 29.5537109375 265.889648438 27.51171875 229.022460938 35.8701171875 c 4
 192.154296875 44.228515625 156.653320312 64.0849609375 136.047851562 95.7783203125 c 4
 119.635742188 121.022460938 113.723632812 152.116210938 115.44140625 182.177734375 c 4
 117.159179688 212.239257812 126.086914062 241.47265625 137.422851562 269.368164062 c 4
 162.783203125 331.77734375 201.412109375 389.934570312 254.932617188 430.84375 c 4
 267.205078125 440.223632812 280.2734375 448.700195312 294.475585938 454.775390625 c 4
 308.677734375 460.8515625 324.08203125 464.477539062 339.520507812 463.952148438 c 4
 354.958984375 463.426757812 370.427734375 458.5859375 382.611328125 449.08984375 c 4
 394.794921875 439.592773438 403.43359375 425.274414062 404.833984375 409.891601562 c 4
 405.830078125 398.951171875 403.268554688 388.047851562 401.578125 377.193359375 c 4
 399.88671875 366.337890625 399.13671875 354.82421875 403.495117188 344.739257812 c 4
 405.877929688 339.224609375 409.735351562 334.372070312 414.493164062 330.704101562 c 4
 419.250976562 327.036132812 424.893554688 324.548828125 430.787109375 323.383789062 c 4
 442.575195312 321.053710938 455.143554688 324.135742188 465.096679688 330.866210938 c 4
 475.049804688 337.596679688 482.442382812 347.772460938 486.725585938 358.998046875 c 4
 491.009765625 370.223632812 492.29296875 382.459960938 491.463867188 394.446289062 c 4
 489.080078125 428.924804688 469.073242188 460.961914062 441.240234375 481.44921875 c 4
 413.407226562 501.935546875 378.453125 511.46484375 343.897460938 512.01171875 c 4
 288.649414062 512.883789062 234.444335938 491.55078125 190.118164062 458.560546875 c 4
 145.809570312 425.583007812 110.7890625 381.549804688 81.330078125 334.827148438 c 4
 56.884765625 296.056640625 35.6142578125 254.198242188 28.541015625 208.913085938 c 4
 21.5185546875 163.956054688 29.1689453125 116.826171875 50.052734375 76.3984375 c 4
EndSplineSet
Validated: 524329
EndChar

StartChar: d
Encoding: 100 100 3
Width: 676
VWidth: 0
Flags: HW
LayerCount: 2
UndoRedoHistory
Layer: 1
Undoes
EndUndoes
Redoes
EndRedoes
EndUndoRedoHistory
Fore
SplineSet
129.610351562 395.624023438 m 4
 95.029296875 361.509765625 67.4931640625 320.286132812 49.2216796875 275.27734375 c 4
 30.984375 230.352539062 21.98046875 181.122070312 27.7177734375 132.977539062 c 4
 31.439453125 101.741210938 41.4755859375 70.9873046875 59.0419921875 44.892578125 c 4
 76.6064453125 18.80078125 101.969726562 -2.4462890625 131.6953125 -12.7265625 c 4
 153.020507812 -20.1015625 176.114257812 -21.7392578125 198.51171875 -19 c 4
 220.909179688 -16.2607421875 242.647460938 -9.2373046875 263.130859375 0.228515625 c 4
 304.096679688 19.1591796875 339.811523438 47.529296875 376.391601562 73.9580078125 c 4
 385.19140625 80.31640625 394.104492188 86.6103515625 401.859375 94.208984375 c 4
 409.61328125 101.80859375 416.229492188 110.854492188 419.455078125 121.221679688 c 4
 421.067382812 126.405273438 421.80859375 131.879882812 421.404296875 137.29296875 c 4
 421.000976562 142.70703125 419.435546875 148.055664062 416.66015625 152.720703125 c 4
 413.884765625 157.38671875 409.883789062 161.349609375 405.083984375 163.884765625 c 4
 400.283203125 166.419921875 394.686523438 167.491210938 389.317382812 166.688476562 c 4
 382.309570312 165.640625 376.063476562 161.51953125 371.129882812 156.43359375 c 4
 366.196289062 151.34765625 362.39453125 145.296875 358.5 139.376953125 c 4
 334.911132812 103.51953125 305.67578125 70.0791015625 267.786132812 49.9130859375 c 4
 247.251953125 38.984375 224.21875 32.16796875 200.959960938 32.5703125 c 4
 177.701171875 32.9716796875 154.252929688 40.9580078125 137.060546875 56.6279296875 c 4
 118.986328125 73.1015625 108.84375 96.9658203125 105.303710938 121.163085938 c 4
 101.762695312 145.360351562 104.329101562 170.045898438 108.4609375 194.1484375 c 4
 116.936523438 243.58984375 132.19140625 292.295898438 157.827148438 335.413085938 c 4
 183.462890625 378.529296875 219.909179688 415.912109375 264.73828125 438.419921875 c 4
 279.634765625 445.899414062 295.552734375 451.756835938 312.130859375 453.495117188 c 4
 328.708007812 455.233398438 346.0390625 452.631835938 360.399414062 444.168945312 c 4
 371.717773438 437.499023438 380.859375 427.462890625 392.54296875 421.456054688 c 4
 398.384765625 418.453125 404.911132812 416.506835938 411.470703125 416.87109375 c 4
 414.75 417.052734375 418.008789062 417.81640625 420.971679688 419.233398438 c 4
 423.934570312 420.649414062 426.596679688 422.727539062 428.5859375 425.340820312 c 4
 431.46875 429.125976562 432.854492188 433.951171875 432.783203125 438.708007812 c 4
 432.711914062 443.465820312 431.234375 448.147460938 428.87890625 452.28125 c 4
 424.166992188 460.548828125 416.213867188 466.4453125 408.036132812 471.310546875 c 4
 385.680664062 484.609375 359.95703125 491.98046875 333.987304688 493.458984375 c 4
 308.03515625 494.936523438 281.950195312 490.626953125 257.186523438 482.724609375 c 4
 207.4375 466.84765625 162.512695312 436.17578125 129.610351562 395.624023438 c 4
427.802734375 68.9130859375 m 4
 423.0390625 80.3291015625 422.6796875 93.201171875 424.69921875 105.404296875 c 4
 426.71875 117.608398438 431.00390625 129.3046875 435.313476562 140.899414062 c 4
 506.029296875 331.18359375 589.49609375 517.379882812 641.19140625 713.686523438 c 4
 645.490234375 730.010742188 649.596679688 746.677734375 648.841796875 763.541015625 c 4
 648.46484375 771.973632812 646.848632812 780.396484375 643.546875 788.1640625 c 4
 640.244140625 795.931640625 635.216796875 803.03125 628.623046875 808.30078125 c 4
 617.498046875 817.190429688 601.973632812 820.310546875 588.305664062 816.310546875 c 4
 574.63671875 812.310546875 563.217773438 801.263671875 558.86328125 787.704101562 c 4
 555.817382812 778.217773438 556.120117188 768.040039062 555.908203125 758.078125 c 4
 554.952148438 712.994140625 542.916992188 668.974609375 531.145507812 625.444335938 c 4
 490.079101562 473.583007812 450.654296875 319.59375 377.740234375 180.1953125 c 4
 367.946289062 161.471679688 357.518554688 142.942382812 350.642578125 122.9609375 c 4
 343.767578125 102.979492188 340.590820312 81.14453125 345.717773438 60.64453125 c 4
 351.42578125 37.8173828125 367.307617188 18.1787109375 387.28125 5.7392578125 c 4
 407.25390625 -6.7001953125 431.036132812 -12.2734375 454.564453125 -12.4833984375 c 4
 501.623046875 -12.9033203125 546.166992188 7.0556640625 589.033203125 26.4765625 c 4
 596.19140625 29.71875 603.516601562 33.0703125 609.088867188 38.6103515625 c 4
 611.875976562 41.380859375 614.177734375 44.6875 615.4921875 48.3896484375 c 4
 616.805664062 52.0927734375 617.094726562 56.2041015625 615.989257812 59.974609375 c 4
 614.46484375 65.173828125 610.33984375 69.40625 605.411132812 71.658203125 c 4
 600.483398438 73.9091796875 594.833984375 74.2958984375 589.4921875 73.3896484375 c 4
 578.80859375 71.5771484375 569.669921875 64.9775390625 560.60546875 59.0400390625 c 4
 540.026367188 45.5615234375 516.96875 34.4296875 492.396484375 33.2734375 c 4
 479.310546875 32.6572265625 465.958984375 34.984375 454.317382812 40.9921875 c 4
 442.67578125 47 432.846679688 56.8232421875 427.802734375 68.9130859375 c 4
EndSplineSet
Validated: 524325
EndChar

StartChar: e
Encoding: 101 101 4
Width: 668
VWidth: 0
Flags: HW
LayerCount: 2
UndoRedoHistory
Layer: 1
Undoes
EndUndoes
Redoes
EndRedoes
EndUndoRedoHistory
Fore
SplineSet
551.331054688 448.821289062 m 4
 537.00390625 472.350585938 514.689453125 490.91796875 488.948242188 500.729492188 c 4
 463.05078125 510.600585938 434.478515625 511.61328125 406.970703125 508.234375 c 4
 359.108398438 502.354492188 313.229492188 483.486328125 273.46875 456.202148438 c 4
 233.692382812 428.907226562 199.961914062 393.399414062 171.759765625 354.26171875 c 4
 137.6953125 306.989257812 110.99609375 252.776367188 105.287109375 194.7890625 c 4
 102.666015625 168.159179688 104.555664062 140.9765625 112.041992188 115.287109375 c 4
 119.529296875 89.59765625 132.700195312 65.4345703125 151.15234375 46.0556640625 c 4
 181.712890625 13.9599609375 224.936523438 -3.40625 268.413085938 -12 c 4
 380.349609375 -34.123046875 496.55078125 -3.337890625 600.62109375 43.4423828125 c 4
 612.177734375 48.63671875 624.033203125 54.3212890625 632.157226562 64.0439453125 c 4
 636.219726562 68.904296875 639.231445312 74.7421875 640.21875 80.9990234375 c 4
 641.20703125 87.2568359375 640.063476562 93.935546875 636.528320312 99.1923828125 c 4
 632.854492188 104.657226562 626.794921875 108.291992188 620.359375 109.686523438 c 4
 613.923828125 111.080078125 607.146484375 110.356445312 600.875 108.34765625 c 4
 588.33203125 104.33203125 578.013671875 95.5322265625 567.365234375 87.7802734375 c 4
 523.046875 55.5166015625 468.717773438 39.375 414.328125 32.5283203125 c 4
 384.505859375 28.7744140625 354.076171875 27.6640625 324.516601562 33.111328125 c 4
 294.956054688 38.5595703125 266.181640625 50.8974609375 244.26171875 71.4638671875 c 4
 216.458984375 97.548828125 201.440429688 135.49609375 198.888671875 173.53515625 c 4
 196.336914062 211.573242188 205.467773438 249.705078125 220.3125 284.8203125 c 4
 248.999023438 352.67578125 299.798828125 411.200195312 363.642578125 447.958984375 c 4
 383.450195312 459.36328125 404.989257812 468.849609375 427.790039062 470.4375 c 4
 439.190429688 471.231445312 450.795898438 469.999023438 461.56640625 466.176757812 c 4
 472.3359375 462.354492188 482.24609375 455.88671875 489.576171875 447.119140625 c 4
 496.501953125 438.837890625 501.008789062 428.649414062 503.0546875 418.049804688 c 4
 505.100585938 407.44921875 504.73046875 396.44921875 502.553710938 385.875976562 c 4
 498.19921875 364.728515625 486.83203125 345.642578125 473.693359375 328.509765625 c 4
 417.502929688 255.231445312 329.513671875 213.6328125 241.704101562 185.05859375 c 4
 184.502929688 166.444335938 125.776367188 152.138671875 70.2431640625 129.016601562 c 4
 63.12890625 126.0546875 56.044921875 122.934570312 49.5087890625 118.853515625 c 4
 42.9716796875 114.771484375 36.96484375 109.67578125 32.6044921875 103.322265625 c 4
 28.244140625 96.96875 25.6083984375 89.28125 26.0478515625 81.587890625 c 4
 26.267578125 77.7412109375 27.2529296875 73.927734375 29.029296875 70.5087890625 c 4
 30.8056640625 67.0888671875 33.37890625 64.0712890625 36.5419921875 61.87109375 c 4
 42.3037109375 57.86328125 49.6953125 56.767578125 56.6826171875 57.4384765625 c 4
 63.6689453125 58.109375 70.3837890625 60.40234375 77.0234375 62.6806640625 c 4
 218.614257812 111.258789062 363.498046875 162.327148438 478.090820312 258.640625 c 4
 506.260742188 282.31640625 532.794921875 309.204101562 548.744140625 342.366210938 c 4
 556.723632812 358.956054688 561.92578125 377.028320312 562.595703125 395.424804688 c 4
 563.265625 413.78515625 559.360351562 432.295898438 551.331054688 448.821289062 c 4
EndSplineSet
Validated: 524325
EndChar

StartChar: f
Encoding: 102 102 5
Width: 702
VWidth: 0
Flags: HW
LayerCount: 2
UndoRedoHistory
Layer: 1
Undoes
EndUndoes
Redoes
EndRedoes
EndUndoRedoHistory
Fore
SplineSet
56.3701171875 -206.4453125 m 4
 49.068359375 -202.711914062 43.4970703125 -195.999023438 40.435546875 -188.391601562 c 4
 37.373046875 -180.784179688 36.7109375 -172.338867188 37.751953125 -164.205078125 c 4
 39.8330078125 -147.935546875 48.3642578125 -133.3125 56.65625 -119.162109375 c 4
 115.802734375 -18.2197265625 171.916015625 84.591796875 221.4921875 190.563476562 c 4
 283.615234375 323.35546875 335.37109375 460.88671875 400.037109375 592.459960938 c 4
 432.305664062 658.116210938 468.803710938 723.55859375 523.31640625 772.346679688 c 4
 538.369140625 785.818359375 554.990234375 798.063476562 574.037109375 804.791015625 c 4
 583.560546875 808.155273438 593.630859375 810.09375 603.73046875 809.99609375 c 4
 613.830078125 809.899414062 623.959960938 807.734375 633.00390625 803.23828125 c 4
 650.639648438 794.470703125 663.108398438 777.272460938 669.3359375 758.587890625 c 4
 675.563476562 739.903320312 676.10546875 719.768554688 674.541015625 700.134765625 c 4
 667.66015625 613.782226562 621.522460938 534.806640625 564.313476562 469.7578125 c 4
 498.340820312 394.745117188 417.099609375 334.549804688 332.111328125 282.048828125 c 4
 250.883789062 231.872070312 165.55078125 188.142578125 76.49609375 153.720703125 c 4
 67.705078125 150.323242188 58.572265625 146.96484375 49.158203125 147.3984375 c 4
 44.4501953125 147.616210938 39.73828125 148.8203125 35.71875 151.280273438 c 4
 31.7001953125 153.740234375 28.4130859375 157.5078125 26.9248046875 161.979492188 c 4
 25.365234375 166.663085938 25.85546875 171.904296875 27.8125 176.436523438 c 4
 29.76953125 180.96875 33.119140625 184.818359375 37.0498046875 187.805664062 c 4
 44.9091796875 193.782226562 54.7724609375 196.310546875 64.28515625 198.958007812 c 4
 149.389648438 222.6484375 227.596679688 266.2109375 302.014648438 313.8125 c 4
 400.103515625 376.553710938 494.642578125 448.393554688 563.841796875 542.038085938 c 4
 583.528320312 568.678710938 601.1484375 597.158203125 612.62890625 628.23046875 c 4
 624.108398438 659.302734375 629.252929688 693.1875 623.743164062 725.850585938 c 4
 622.626953125 732.466796875 621.021484375 739.15625 617.4140625 744.813476562 c 4
 615.609375 747.641601562 613.310546875 750.177734375 610.541015625 752.071289062 c 4
 607.771484375 753.96484375 604.520507812 755.197265625 601.171875 755.401367188 c 4
 597.887695312 755.600585938 594.596679688 754.813476562 591.576171875 753.509765625 c 4
 588.5546875 752.20703125 585.778320312 750.399414062 583.102539062 748.484375 c 4
 556.961914062 729.775390625 540.065429688 701.084960938 524.328125 673.053710938 c 4
 435.083984375 514.102539062 358.291015625 348.533203125 281.849609375 183.04296875 c 4
 250.21875 114.564453125 218.625 46.052734375 184.866210938 -21.40234375 c 4
 164.692382812 -61.7109375 143.6875 -101.776367188 128.408203125 -144.182617188 c 4
 122.266601562 -161.227539062 116.779296875 -179.126953125 104.900390625 -192.806640625 c 4
 98.9619140625 -199.646484375 91.427734375 -205.267578125 82.8046875 -208.04296875 c 4
 74.1826171875 -210.819335938 64.435546875 -210.568359375 56.3701171875 -206.4453125 c 4
141.252929688 45.033203125 m 4
 138.767578125 53.2939453125 140.235351562 62.4404296875 144.18359375 70.1103515625 c 4
 148.514648438 78.5224609375 155.768554688 85.3583984375 164.337890625 89.37109375 c 4
 177.829101562 95.6884765625 193.747070312 94.8779296875 208.022460938 90.6201171875 c 4
 222.298828125 86.36328125 235.372070312 78.921875 248.607421875 72.0859375 c 4
 299.860351562 45.6142578125 355.90625 27.4130859375 413.465820312 23.5986328125 c 4
 471.024414062 19.7841796875 530.159179688 30.84375 580.25 59.4541015625 c 4
 591.361328125 65.80078125 602.388671875 73.125 615.022460938 75.1572265625 c 4
 621.338867188 76.173828125 627.981445312 75.7724609375 633.870117188 73.2705078125 c 4
 639.759765625 70.76953125 644.819335938 66.041015625 647.036132812 60.0390625 c 4
 648.87890625 55.0478515625 648.681640625 49.416015625 646.932617188 44.390625 c 4
 645.18359375 39.365234375 641.950195312 34.9306640625 638.01171875 31.3525390625 c 4
 630.135742188 24.1953125 619.776367188 20.5244140625 609.649414062 17.25390625 c 4
 529.72265625 -8.5595703125 445.229492188 -20.2451171875 361.307617188 -16.80859375 c 4
 300.337890625 -14.3125 239.657226562 -3.8603515625 181.55078125 14.7744140625 c 4
 173.213867188 17.447265625 164.8359375 20.333984375 157.4765625 25.076171875 c 4
 150.1171875 29.818359375 143.774414062 36.6494140625 141.252929688 45.033203125 c 4
EndSplineSet
Validated: 524325
EndChar

StartChar: g
Encoding: 103 103 6
Width: 599
VWidth: 0
Flags: HW
LayerCount: 2
UndoRedoHistory
Layer: 1
Undoes
EndUndoes
Redoes
EndRedoes
EndUndoRedoHistory
Fore
SplineSet
179.705078125 406.501953125 m 4
 210.014648438 432.73828125 246.220703125 452.122070312 284.860351562 462.798828125 c 4
 323.3671875 473.438476562 365.2421875 475.264648438 402.799804688 461.645507812 c 4
 413.276367188 457.846679688 423.711914062 452.581054688 430.47265625 443.720703125 c 4
 433.852539062 439.291015625 436.208984375 434.009765625 436.776367188 428.466796875 c 4
 437.342773438 422.922851562 436.041015625 417.129882812 432.77734375 412.61328125 c 4
 429.09375 407.517578125 423.129882812 404.333007812 416.931640625 403.2734375 c 4
 410.732421875 402.21484375 404.318359375 403.139648438 398.340820312 405.090820312 c 4
 386.384765625 408.993164062 376.114257812 416.807617188 364.58984375 421.842773438 c 4
 349.431640625 428.465820312 332.361328125 430.086914062 315.951171875 428.008789062 c 4
 299.540039062 425.9296875 283.734375 420.272460938 268.9296875 412.892578125 c 4
 225.66796875 391.328125 190.751953125 355.087890625 165.931640625 313.608398438 c 4
 141.111328125 272.129882812 125.896484375 225.504882812 115.854492188 178.221679688 c 4
 110.640625 153.671875 106.76171875 128.357421875 110.477539062 103.536132812 c 4
 112.3359375 91.125 116.1171875 78.9375 122.287109375 68.009765625 c 4
 128.45703125 57.0830078125 137.06640625 47.44140625 147.651367188 40.701171875 c 4
 157.559570312 34.390625 169.041015625 30.7177734375 180.716796875 29.4267578125 c 4
 192.392578125 28.1357421875 204.263671875 29.18359375 215.708007812 31.8330078125 c 4
 238.596679688 37.1298828125 259.520507812 48.650390625 279.6171875 60.818359375 c 4
 327.579101562 89.8583984375 374.182617188 124.880859375 401.8046875 173.672851562 c 4
 407.022460938 182.889648438 411.59375 192.635742188 418.686523438 200.500976562 c 4
 422.232421875 204.43359375 426.407226562 207.859375 431.186523438 210.140625 c 4
 435.965820312 212.421875 441.375 213.518554688 446.622070312 212.807617188 c 4
 450.709960938 212.25390625 454.629882812 210.612304688 457.966796875 208.1875 c 4
 461.303710938 205.763671875 464.060546875 202.567382812 466.081054688 198.971679688 c 4
 470.120117188 191.778320312 471.133789062 183.118164062 469.809570312 174.975585938 c 4
 468.485351562 166.833007812 464.942382812 159.170898438 460.403320312 152.282226562 c 4
 455.86328125 145.393554688 450.334960938 139.217773438 444.6953125 133.196289062 c 4
 393.76953125 78.8203125 331.749023438 34.716796875 263.201171875 5.537109375 c 4
 239.626953125 -4.4990234375 215.1015625 -12.828125 189.67578125 -15.9873046875 c 4
 164.25 -19.146484375 137.765625 -16.9228515625 114.33203125 -6.5634765625 c 4
 85.353515625 6.248046875 62.53515625 31.03515625 48.9697265625 59.6689453125 c 4
 35.40234375 88.3056640625 30.6259765625 120.588867188 31.91015625 152.250976562 c 4
 33.9619140625 202.827148438 51.1376953125 252.143554688 77.2099609375 295.530273438 c 4
 103.327148438 338.994140625 138.44921875 377.020507812 179.705078125 406.501953125 c 4
474.84765625 396.112304688 m 4
 479.25390625 417.063476562 483.0703125 439.014648438 495.685546875 456.313476562 c 4
 501.993164062 464.962890625 510.51953125 472.202148438 520.58984375 475.831054688 c 4
 530.661132812 479.4609375 542.321289062 479.208984375 551.692382812 474.03515625 c 4
 558.688476562 470.171875 564.124023438 463.770507812 567.444335938 456.501953125 c 4
 570.765625 449.232421875 572.05078125 441.133789062 571.857421875 433.14453125 c 4
 571.469726562 417.166015625 565.388671875 401.950195312 559.534179688 387.078125 c 4
 524.302734375 297.565429688 494.254882812 206.079101562 467.028320312 113.815429688 c 4
 443.690429688 34.7294921875 421.314453125 -47.2001953125 370.877929688 -112.434570312 c 4
 336.444335938 -156.971679688 289.063476562 -192.1875 235.088867188 -208.192382812 c 4
 181.115234375 -224.197265625 120.642578125 -220.053710938 71.23828125 -193.061523438 c 4
 58.7626953125 -186.245117188 46.8505859375 -177.875 38.18359375 -166.607421875 c 4
 33.849609375 -160.97265625 30.37109375 -154.646484375 28.2587890625 -147.859375 c 4
 26.1474609375 -141.072265625 25.4228515625 -133.819335938 26.484375 -126.791015625 c 4
 27.740234375 -118.48046875 31.5947265625 -110.471679688 37.7919921875 -104.79296875 c 4
 43.9892578125 -99.1142578125 52.5791015625 -95.9375 60.9326171875 -96.875 c 4
 65.5517578125 -97.3935546875 69.990234375 -99.1201171875 73.9501953125 -101.5546875 c 4
 77.91015625 -103.990234375 81.408203125 -107.122070312 84.5478515625 -110.549804688 c 4
 90.828125 -117.405273438 95.69140625 -125.420898438 101.470703125 -132.703125 c 4
 117.59765625 -153.024414062 140.993164062 -167.319335938 166.303710938 -173.013671875 c 4
 191.614257812 -178.70703125 218.668945312 -175.873046875 242.508789062 -165.640625 c 4
 263.431640625 -156.659179688 281.768554688 -142.192382812 296.666015625 -124.97265625 c 4
 311.563476562 -107.752929688 323.114257812 -87.8212890625 332.219726562 -66.951171875 c 4
 350.428710938 -25.2119140625 358.919921875 19.974609375 370.563476562 64 c 4
 400.249023438 176.24609375 450.951171875 282.493164062 474.84765625 396.112304688 c 4
EndSplineSet
Validated: 524325
EndChar

StartChar: h
Encoding: 104 104 7
Width: 643
VWidth: 0
Flags: HW
LayerCount: 2
UndoRedoHistory
Layer: 1
Undoes
EndUndoes
Redoes
EndRedoes
EndUndoRedoHistory
Fore
SplineSet
199.752929688 392.676757812 m 4
 194.766601562 283.7734375 l 5
 207.442382812 316.0234375 225.533203125 346.137695312 248.051757812 372.474609375 c 4
 262.973632812 389.926757812 279.922851562 405.799804688 299.284179688 418.14453125 c 4
 318.645507812 430.48828125 340.49609375 439.241210938 363.2890625 442.020507812 c 4
 386.08203125 444.80078125 409.82421875 441.422851562 430.241210938 430.916015625 c 4
 450.657226562 420.408203125 467.506835938 402.559570312 475.345703125 380.9765625 c 4
 480.828125 365.879882812 481.860351562 349.411132812 480.045898438 333.453125 c 4
 478.231445312 317.494140625 473.654296875 301.967773438 468.184570312 286.8671875 c 4
 446.356445312 226.602539062 410.172851562 171.970703125 392.12109375 110.46875 c 4
 387.479492188 94.65234375 384.0546875 78.3076171875 384.350585938 61.826171875 c 4
 384.646484375 45.345703125 388.8671875 28.630859375 398.401367188 15.18359375 c 4
 408.55078125 0.8701171875 424.286132812 -9.001953125 441.202148438 -13.6650390625 c 4
 458.119140625 -18.3271484375 476.151367188 -18.0185546875 493.358398438 -14.5830078125 c 4
 527.7734375 -7.712890625 558.403320312 11.041015625 589.666015625 26.9853515625 c 4
 596.91015625 30.6796875 604.408203125 34.373046875 609.875 40.3935546875 c 4
 612.608398438 43.4033203125 614.778320312 46.982421875 615.809570312 50.916015625 c 4
 616.840820312 54.849609375 616.6796875 59.1474609375 615.005859375 62.8525390625 c 4
 613.02734375 67.2294921875 609.03125 70.5322265625 604.514648438 72.166015625 c 4
 599.998046875 73.7998046875 595.0078125 73.857421875 590.306640625 72.8740234375 c 4
 580.903320312 70.9072265625 572.872070312 65.0595703125 564.80859375 59.837890625 c 4
 554.921875 53.435546875 544.559570312 47.7890625 533.969726562 42.634765625 c 4
 523.067382812 37.3291015625 511.725585938 32.4853515625 499.698242188 30.94921875 c 4
 493.684570312 30.1806640625 487.536132812 30.259765625 481.606445312 31.5205078125 c 4
 475.67578125 32.78125 469.967773438 35.24609375 465.184570312 38.970703125 c 4
 460.422851562 42.6796875 456.645507812 47.5859375 453.994140625 53.0078125 c 4
 451.341796875 58.4296875 449.794921875 64.359375 449.14453125 70.3603515625 c 4
 447.842773438 82.361328125 450.083984375 94.4755859375 453.233398438 106.12890625 c 4
 468.008789062 160.791015625 502.205078125 207.827148438 526.458984375 258.993164062 c 4
 538.584960938 284.576171875 548.334960938 311.610351562 551.497070312 339.745117188 c 4
 554.659179688 367.87890625 550.897460938 397.294921875 537.353515625 422.157226562 c 4
 523.874023438 446.900390625 501.15234375 466.075195312 475.267578125 477.20703125 c 4
 449.3828125 488.338867188 420.500976562 491.686523438 392.456054688 488.958007812 c 4
 336.3671875 483.500976562 285.239257812 454.776367188 239.21484375 422.256835938 c 4
 225.787109375 412.76953125 212.625976562 402.904296875 199.752929688 392.676757812 c 4
113.56640625 60.3076171875 m 4
 137.55078125 143.946289062 171.228515625 224.431640625 204.745117188 304.7265625 c 4
 261.4375 440.5390625 317.919921875 576.497070312 368.555664062 714.680664062 c 4
 374.123046875 729.874023438 379.67578125 745.358398438 380.610351562 761.512695312 c 4
 381.078125 769.58984375 380.361328125 777.782226562 377.956054688 785.506835938 c 4
 375.549804688 793.231445312 371.412109375 800.479492188 365.587890625 806.094726562 c 4
 355.581054688 815.741210938 340.671875 819.959960938 327.0625 817.138671875 c 4
 313.453125 814.317382812 301.497070312 804.587890625 295.827148438 791.897460938 c 4
 291.263671875 781.682617188 290.69921875 770.211914062 289.670898438 759.071289062 c 4
 285.487304688 713.750976562 272.581054688 669.71875 258.509765625 626.436523438 c 4
 206.986328125 467.959960938 139.065429688 315.299804688 66.7041015625 165.1875 c 4
 51.9013671875 134.477539062 36.7841796875 103.518554688 29.251953125 70.2685546875 c 4
 26.1064453125 56.3857421875 24.3427734375 41.7265625 28.2099609375 28.02734375 c 4
 30.1435546875 21.1767578125 33.5029296875 14.671875 38.36328125 9.47265625 c 4
 43.2236328125 4.2734375 49.6259765625 0.4296875 56.6142578125 -0.9189453125 c 4
 64.173828125 -2.3779296875 72.154296875 -0.8662109375 79.005859375 2.6435546875 c 4
 85.8583984375 6.1533203125 91.6220703125 11.5751953125 96.15234375 17.7998046875 c 4
 105.211914062 30.25 109.322265625 45.5068359375 113.56640625 60.3076171875 c 4
EndSplineSet
Validated: 524325
EndChar

StartChar: i
Encoding: 105 105 8
Width: 491
VWidth: 0
Flags: HW
LayerCount: 2
UndoRedoHistory
Layer: 1
Undoes
EndUndoes
Redoes
EndRedoes
EndUndoRedoHistory
Fore
SplineSet
207.790039062 89.595703125 m 4
 201.416015625 111.061523438 205.204101562 134.504882812 213.733398438 155.208984375 c 4
 222.262695312 175.913085938 235.259765625 194.411132812 247.950195312 212.860351562 c 4
 270.837890625 246.13671875 293.1484375 280.020507812 310.309570312 316.581054688 c 4
 327.470703125 353.142578125 339.415039062 392.658203125 340.529296875 433.03125 c 4
 340.741210938 440.73046875 340.555664062 448.483398438 339.115234375 456.049804688 c 4
 337.674804688 463.616210938 334.934570312 471.0234375 330.389648438 477.2421875 c 4
 322.381835938 488.201171875 308.778320312 494.77734375 295.209960938 494.44140625 c 4
 281.640625 494.10546875 268.453125 486.938476562 260.629882812 475.846679688 c 4
 256.032226562 469.329101562 253.262695312 461.671875 251.515625 453.888671875 c 4
 249.768554688 446.10546875 248.999023438 438.142578125 248.075195312 430.219726562 c 4
 244.693359375 401.227539062 239.158203125 372.329101562 228.907226562 344.999023438 c 4
 208.245117188 289.916992188 169.469726562 243.623046875 143.359375 190.905273438 c 4
 134.92578125 173.876953125 127.795898438 156.09375 123.80078125 137.515625 c 4
 119.806640625 118.938476562 119.018554688 99.5 123.16796875 80.9560546875 c 4
 130.015625 50.3515625 150.3203125 23.548828125 176.421875 6.1650390625 c 4
 202.5234375 -11.2197265625 234.0390625 -19.568359375 265.388671875 -20.421875 c 4
 328.086914062 -22.12890625 387.796875 4.744140625 443.284179688 33.98828125 c 4
 448.706054688 36.845703125 454.219726562 39.8125 458.400390625 44.294921875 c 4
 460.491210938 46.5361328125 462.21875 49.146484375 463.239257812 52.0361328125 c 4
 464.259765625 54.92578125 464.55078125 58.1025390625 463.83984375 61.083984375 c 4
 463.278320312 63.439453125 462.100585938 65.63671875 460.509765625 67.4619140625 c 4
 458.91796875 69.2880859375 456.919921875 70.74609375 454.729492188 71.779296875 c 4
 450.348632812 73.8447265625 445.279296875 74.177734375 440.512695312 73.318359375 c 4
 430.978515625 71.599609375 422.934570312 65.4970703125 414.85546875 60.150390625 c 4
 394.145507812 46.4423828125 370.853515625 36.732421875 346.645507812 31.1845703125 c 4
 319.653320312 24.9990234375 290.810546875 24.0810546875 264.708984375 33.33203125 c 4
 251.658203125 37.95703125 239.44140625 45.1103515625 229.447265625 54.693359375 c 4
 219.453125 64.2763671875 211.731445312 76.322265625 207.790039062 89.595703125 c 4
337.201171875 671.994140625 m 4
 317.147460938 699.658203125 318.71484375 747.91015625 340.227539062 774.454101562 c 4
 354.544921875 792.119140625 385.283203125 798.672851562 406.51953125 790.545898438 c 4
 424.674804688 783.59765625 439.026367188 761.8984375 439.528320312 742.46484375 c 4
 440.38671875 709.150390625 418.369140625 669.190429688 387.259765625 657.233398438 c 4
 371.021484375 650.990234375 347.412109375 657.908203125 337.201171875 671.994140625 c 4
56.740234375 165.294921875 m 4
 51.830078125 162.567382812 46.8837890625 159.872070312 42.3193359375 156.599609375 c 4
 37.75390625 153.327148438 33.552734375 149.44140625 30.5166015625 144.715820312 c 4
 27.48046875 139.991210938 25.662109375 134.370117188 26.052734375 128.766601562 c 4
 26.2470703125 125.965820312 26.9931640625 123.194335938 28.310546875 120.71484375 c 4
 29.6279296875 118.234375 31.5224609375 116.051757812 33.84375 114.470703125 c 4
 36.3310546875 112.77734375 39.26953125 111.797851562 42.2587890625 111.454101562 c 4
 45.248046875 111.109375 48.2890625 111.385742188 51.2216796875 112.05859375 c 4
 57.0869140625 113.40625 62.462890625 116.29296875 67.8056640625 119.063476562 c 4
 98.873046875 135.166992188 131.455078125 148.278320312 162.087890625 165.196289062 c 4
 182.197265625 176.301757812 201.509765625 189.100585938 218.219726562 204.864257812 c 4
 234.930664062 220.627929688 249.013671875 239.471679688 257.544921875 260.80078125 c 4
 271.890625 296.669921875 269.303710938 338.904296875 250.6875 372.75390625 c 5
 240.413085938 355.036132812 230.056640625 337.365234375 219.619140625 319.743164062 c 4
 208.56640625 301.083007812 197.383789062 282.41796875 183.981445312 265.3671875 c 4
 150.412109375 222.655273438 104.227539062 191.6796875 56.740234375 165.294921875 c 4
EndSplineSet
Validated: 524325
EndChar

StartChar: j
Encoding: 106 106 9
Width: 685
VWidth: 0
Flags: HW
LayerCount: 2
UndoRedoHistory
Layer: 1
Undoes
EndUndoes
Redoes
EndRedoes
EndUndoRedoHistory
Fore
SplineSet
231.3125 116.727539062 m 4
 299.518554688 136.888671875 361.588867188 177.692382812 406.553710938 232.798828125 c 4
 421.208007812 250.7578125 434.056640625 270.15625 445.389648438 290.375976562 c 4
 453.286132812 304.463867188 460.455078125 318.959960938 466.857421875 333.786132812 c 5
 471.721679688 216.932617188 l 5
 460.515625 202.310546875 447.884765625 188.78125 434.065429688 176.598632812 c 4
 379.321289062 128.336914062 308.703125 103.142578125 241.592773438 74.4658203125 c 4
 233.719726562 71.1015625 225.629882812 67.6201171875 217.071289062 67.3837890625 c 4
 212.791992188 67.265625 208.446289062 67.994140625 204.599609375 69.8720703125 c 4
 200.752929688 71.7509765625 197.432617188 74.828125 195.615234375 78.7041015625 c 4
 193.5 83.2109375 193.540039062 88.5693359375 195.2265625 93.2529296875 c 4
 196.913085938 97.9375 200.147460938 101.96875 204.029296875 105.0859375 c 4
 211.791015625 111.322265625 221.764648438 113.905273438 231.3125 116.727539062 c 4
481.247070312 403.190429688 m 4
 485.793945312 424.067382812 489.650390625 445.951171875 502.2265625 463.223632812 c 4
 508.514648438 471.860351562 517.002929688 479.102539062 527.040039062 482.760742188 c 4
 537.077148438 486.418945312 548.709960938 486.223632812 558.091796875 481.11328125 c 4
 565.122070312 477.284179688 570.599609375 470.897460938 573.953125 463.62890625 c 4
 577.307617188 456.360351562 578.615234375 448.248046875 578.427734375 440.245117188 c 4
 578.052734375 424.239257812 571.91796875 409.00390625 565.93359375 394.154296875 c 4
 529.713867188 304.28125 495.713867188 213.448242188 467.028320312 120.89453125 c 4
 442.62890625 42.169921875 421.016601562 -39.94140625 370.877929688 -105.35546875 c 4
 336.611328125 -150.061523438 289.18359375 -185.338867188 235.166992188 -201.307617188 c 4
 181.149414062 -217.275390625 120.655273438 -213.016601562 71.23828125 -185.984375 c 4
 58.7666015625 -179.162109375 46.85546875 -170.791992188 38.1875 -159.525390625 c 4
 33.853515625 -153.891601562 30.3740234375 -147.565429688 28.2607421875 -140.779296875 c 4
 26.1484375 -133.993164062 25.4228515625 -126.740234375 26.4833984375 -119.711914062 c 4
 27.7392578125 -111.401367188 31.5947265625 -103.393554688 37.7919921875 -97.71484375 c 4
 43.9892578125 -92.037109375 52.5791015625 -88.8603515625 60.931640625 -89.7978515625 c 4
 65.5517578125 -90.3154296875 69.990234375 -92.041015625 73.9501953125 -94.4755859375 c 4
 77.91015625 -96.91015625 81.4091796875 -100.041992188 84.5498046875 -103.469726562 c 4
 90.830078125 -110.32421875 95.693359375 -118.33984375 101.470703125 -125.624023438 c 4
 117.595703125 -145.956054688 140.983398438 -160.278320312 166.297851562 -165.984375 c 4
 191.612304688 -171.690429688 218.684570312 -168.848632812 242.5078125 -158.561523438 c 4
 263.395507812 -149.541992188 281.668945312 -135.016601562 296.4921875 -117.756835938 c 4
 311.315429688 -100.497070312 322.78515625 -80.5419921875 331.840820312 -59.669921875 c 4
 349.951171875 -17.92578125 358.48046875 27.208984375 370.563476562 71.0791015625 c 4
 401.573242188 183.665039062 456.392578125 289.086914062 481.247070312 403.190429688 c 4
555.204101562 657.993164062 m 4
 535.150390625 685.657226562 536.717773438 733.908203125 558.23046875 760.452148438 c 4
 572.549804688 778.118164062 603.286132812 784.673828125 624.521484375 776.545898438 c 4
 642.678710938 769.596679688 657.030273438 747.8984375 657.530273438 728.465820312 c 4
 658.389648438 695.1484375 636.372070312 655.188476562 605.262695312 643.231445312 c 4
 589.024414062 636.990234375 565.415039062 643.908203125 555.204101562 657.993164062 c 4
EndSplineSet
Validated: 524325
EndChar

StartChar: l
Encoding: 108 108 10
Width: 544
VWidth: 0
Flags: HW
LayerCount: 2
UndoRedoHistory
Layer: 1
Undoes
EndUndoes
Redoes
EndRedoes
EndUndoRedoHistory
Fore
SplineSet
478.865234375 810.0234375 m 0
 469.104492188 814.734375 458.241210938 817.141601562 447.404296875 816.993164062 c 0
 436.545898438 816.845703125 425.8125 814.1640625 415.795898438 809.971679688 c 0
 395.771484375 801.588867188 378.772460938 787.412109375 362.78125 772.732421875 c 0
 214.680664062 636.776367188 128.774414062 443.075195312 92.5693359375 245.3203125 c 0
 85.982421875 209.337890625 80.892578125 172.693359375 84.029296875 136.248046875 c 0
 87.1650390625 99.8017578125 99.1201171875 63.2373046875 123.192382812 35.693359375 c 0
 143.849609375 12.0576171875 172.547851562 -3.8251953125 202.924804688 -11.734375 c 0
 233.302734375 -19.642578125 265.32421875 -19.888671875 296.40625 -15.501953125 c 0
 358.571289062 -6.7294921875 416.530273438 19.9404296875 476.104492188 39.74609375 c 0
 485.498046875 42.869140625 495.276367188 46.01171875 502.543945312 52.7333984375 c 0
 506.177734375 56.0947265625 509.083007812 60.33984375 510.384765625 65.1162109375 c 0
 511.685546875 69.8916015625 511.28125 75.2080078125 508.809570312 79.49609375 c 0
 506.8203125 82.9462890625 503.5859375 85.5986328125 499.936523438 87.1923828125 c 0
 496.287109375 88.787109375 492.2421875 89.3623046875 488.263671875 89.19921875 c 0
 480.305664062 88.873046875 472.776367188 85.70703125 465.43359375 82.623046875 c 0
 420.494140625 63.7470703125 374.791015625 46.0927734375 327.198242188 35.5654296875 c 0
 300.791992188 29.7236328125 273.44921875 26.103515625 246.7109375 30.1669921875 c 0
 219.97265625 34.23046875 193.705078125 46.7158203125 177.334960938 68.244140625 c 0
 165.264648438 84.1162109375 159.217773438 103.944335938 157.259765625 123.788085938 c 0
 155.302734375 143.631835938 157.208984375 163.645507812 159.713867188 183.427734375 c 0
 170.954101562 272.209960938 194.274414062 359.295898438 226.534179688 442.76953125 c 0
 269.681640625 554.413085938 330.506835938 661.81640625 420.334960938 740.916015625 c 0
 424.979492188 745.005859375 429.779296875 749.069335938 435.421875 751.610351562 c 0
 438.243164062 752.880859375 441.26171875 753.75390625 444.346679688 753.98828125 c 0
 447.432617188 754.221679688 450.587890625 753.801757812 453.43359375 752.5859375 c 0
 456.716796875 751.182617188 459.51171875 748.747070312 461.567382812 745.828125 c 0
 463.623046875 742.909179688 464.9609375 739.51953125 465.71484375 736.030273438 c 0
 467.22265625 729.049804688 466.430664062 721.798828125 465.489257812 714.719726562 c 0
 444.7265625 558.46875 355.286132812 418.225585938 244.7265625 305.876953125 c 0
 190.811523438 251.08984375 131.123046875 201.400390625 64.1259765625 163.719726562 c 0
 52.4501953125 157.153320312 40.125 150.575195312 32.4267578125 139.612304688 c 0
 28.578125 134.131835938 26.044921875 127.596679688 26.0009765625 120.899414062 c 0
 25.9560546875 114.202148438 28.57421875 107.375976562 33.623046875 102.974609375 c 0
 37.1201171875 99.92578125 41.62890625 98.1416015625 46.236328125 97.595703125 c 0
 50.8447265625 97.05078125 55.5478515625 97.7041015625 59.9658203125 99.1240234375 c 0
 68.80078125 101.963867188 76.357421875 107.715820312 83.7060546875 113.383789062 c 0
 155.28125 168.58984375 225.670898438 225.740234375 288.840820312 290.395507812 c 0
 397.325195312 401.434570312 485.094726562 538.1484375 512.649414062 690.919921875 c 0
 516.581054688 712.71875 519.264648438 735.192382812 515.055664062 756.939453125 c 0
 512.950195312 767.818359375 509.08984375 778.439453125 502.96484375 787.674804688 c 0
 496.852539062 796.890625 488.515625 804.62109375 478.865234375 810.0234375 c 0
EndSplineSet
Validated: 524325
EndChar

StartChar: m
Encoding: 109 109 11
Width: 710
VWidth: 0
Flags: HW
LayerCount: 2
UndoRedoHistory
Layer: 1
Undoes
EndUndoes
Redoes
EndRedoes
EndUndoRedoHistory
Fore
SplineSet
135.552734375 445.42578125 m 0
 137.033203125 436.1171875 141.978515625 427.783203125 145.396484375 418.998046875 c 0
 152.373046875 401.063476562 152.931640625 381.125 149.908203125 362.120117188 c 0
 146.884765625 343.115234375 140.430664062 324.842773438 133.680664062 306.822265625 c 0
 105.068359375 230.440429688 70.5888671875 156.416992188 38.64453125 81.3681640625 c 0
 32.2451171875 66.3349609375 25.837890625 50.728515625 26.0029296875 34.390625 c 0
 26.0859375 26.2216796875 27.8837890625 17.9814453125 31.9130859375 10.8740234375 c 0
 35.94140625 3.767578125 42.294921875 -2.1396484375 49.9697265625 -4.9404296875 c 0
 58.0673828125 -7.896484375 67.251953125 -7.248046875 75.2236328125 -3.966796875 c 0
 83.1953125 -0.6865234375 89.994140625 5.0869140625 95.2646484375 11.908203125 c 0
 105.805664062 25.55078125 110.21875 42.798828125 114.752929688 59.4326171875 c 0
 131.130859375 119.516601562 152.258789062 178.221679688 175.4921875 236.001953125 c 0
 194.66796875 283.690429688 215.377929688 331.0546875 227.481445312 381.0078125 c 0
 231.395507812 397.162109375 234.408203125 413.752929688 233.251953125 430.333984375 c 0
 232.095703125 446.915039062 226.42578125 463.6328125 214.913085938 475.62109375 c 0
 208.401367188 482.40234375 200.118164062 487.518554688 191.057617188 490.025390625 c 0
 181.99609375 492.53125 172.17578125 492.381835938 163.28515625 489.326171875 c 0
 154.39453125 486.26953125 146.494140625 480.276367188 141.392578125 472.379882812 c 0
 136.291015625 464.483398438 134.075195312 454.7109375 135.552734375 445.42578125 c 0
315.790039062 231.049804688 m 0
 315.782226562 231.049804688 l 1
 290.439453125 177.836914062 267.4765625 123.490234375 246.985351562 68.2265625 c 0
 242.14453125 55.171875 237.375976562 41.6708984375 237.840820312 27.755859375 c 0
 238.073242188 20.7978515625 239.662109375 13.8203125 243.018554688 7.7216796875 c 0
 246.375 1.623046875 251.56640625 -3.5546875 257.939453125 -6.3564453125 c 0
 265.63671875 -9.7412109375 274.684570312 -9.4609375 282.518554688 -6.408203125 c 0
 290.353515625 -3.3564453125 297.01171875 2.3037109375 302.048828125 9.0361328125 c 0
 312.124023438 22.5 315.72265625 39.5712890625 319.313476562 56 c 0
 346.85546875 182.021484375 391.40625 308.661132812 478.772460938 403.56640625 c 0
 490.333007812 416.124023438 502.975585938 428.323242188 518.674804688 435.022460938 c 0
 526.524414062 438.373046875 535.068359375 440.263671875 543.59375 439.887695312 c 0
 552.120117188 439.51171875 560.62109375 436.797851562 567.421875 431.642578125 c 0
 573.271484375 427.208984375 577.741210938 421.076171875 580.607421875 414.319335938 c 0
 583.473632812 407.5625 584.774414062 400.197265625 584.87109375 392.858398438 c 0
 585.06640625 378.180664062 580.556640625 363.860351562 575.3359375 350.141601562 c 0
 545.447265625 271.596679688 491.287109375 204.049804688 461.825195312 125.34375 c 0
 455.651367188 108.850585938 450.559570312 91.744140625 449.5859375 74.16015625 c 0
 448.61328125 56.576171875 452.01953125 38.3623046875 461.712890625 23.6591796875 c 0
 471.590820312 8.677734375 487.524414062 -1.79296875 504.768554688 -6.7578125 c 0
 522.01171875 -11.7236328125 540.485351562 -11.451171875 558.071289062 -7.8818359375 c 0
 593.243164062 -0.7451171875 624.348632812 18.87890625 656.177734375 35.4609375 c 0
 663.36328125 39.205078125 670.797851562 42.939453125 676.236328125 48.9453125 c 0
 678.955078125 51.9482421875 681.123046875 55.5068359375 682.17578125 59.4189453125 c 0
 683.229492188 63.3310546875 683.119140625 67.607421875 681.516601562 71.328125 c 0
 679.600585938 75.7763671875 675.635742188 79.18359375 671.110351562 80.908203125 c 0
 666.583984375 82.6318359375 661.547851562 82.76171875 656.80078125 81.802734375 c 0
 647.306640625 79.8837890625 639.225585938 73.9111328125 631.3203125 68.314453125 c 0
 619.319335938 59.818359375 606.944335938 51.833984375 594.081054688 44.7099609375 c 0
 583.311523438 38.74609375 571.963867188 33.3115234375 559.764648438 31.6591796875 c 0
 553.665039062 30.8330078125 547.3984375 30.98046875 541.426757812 32.47265625 c 0
 535.455078125 33.96484375 529.784179688 36.8330078125 525.295898438 41.0458984375 c 0
 518.067382812 47.83203125 514.314453125 57.7294921875 513.419921875 67.603515625 c 0
 512.525390625 77.478515625 514.258789062 87.408203125 516.63671875 97.0341796875 c 0
 526.365234375 136.419921875 546.76171875 172.282226562 568.544921875 206.5078125 c 0
 590.327148438 240.733398438 613.842773438 274.098632812 630.862304688 310.924804688 c 0
 643.922851562 339.185546875 653.115234375 370.088867188 650.783203125 401.133789062 c 0
 649.6171875 416.65625 645.524414062 432.041992188 638.05078125 445.696289062 c 0
 630.577148438 459.350585938 619.65625 471.225585938 606.22265625 479.087890625 c 0
 593.262695312 486.673828125 578.20703125 490.396484375 563.193359375 490.66015625 c 0
 548.178710938 490.922851562 533.206054688 487.802734375 519.1796875 482.439453125 c 0
 491.127929688 471.713867188 467.25390625 452.396484375 445.133789062 432.08203125 c 0
 431.823242188 419.857421875 418.942382812 407.147460938 406.90234375 393.668945312 c 0
 365.178710938 346.959960938 333.838867188 291.024414062 315.790039062 231.049804688 c 0
192.748046875 381.072265625 m 0
 175.37109375 236.22265625 l 1
 194.506835938 295.052734375 224.3671875 350.375976562 263.043945312 398.659179688 c 0
 274.271484375 412.674804688 286.612304688 426.405273438 302.524414062 434.729492188 c 0
 310.48046875 438.891601562 319.265625 441.61328125 328.235351562 442.0078125 c 0
 337.206054688 442.401367188 346.361328125 440.39453125 354.022460938 435.711914062 c 0
 362.983398438 430.235351562 369.55859375 421.293945312 373.146484375 411.423828125 c 0
 376.735351562 401.553710938 377.47265625 390.798828125 376.369140625 380.354492188 c 0
 374.162109375 359.466796875 364.905273438 340.1015625 357.608398438 320.405273438 c 0
 356.079101562 316.278320312 354.62109375 312.072265625 354.173828125 307.693359375 c 0
 353.727539062 303.315429688 354.372070312 298.694335938 356.77734375 295.0078125 c 0
 358.8984375 291.7578125 362.29296875 289.426757812 366.010742188 288.314453125 c 0
 369.729492188 287.202148438 373.747070312 287.265625 377.516601562 288.1875 c 0
 385.055664062 290.032226562 391.379882812 295.112304688 396.859375 300.610351562 c 0
 413.58984375 317.397460938 424.764648438 339.196289062 431.087890625 362.038085938 c 0
 437.412109375 384.880859375 439.017578125 409.4609375 432.426757812 432.228515625 c 0
 425.8359375 454.995117188 410.423828125 475.720703125 388.974609375 485.805664062 c 0
 376.87890625 491.4921875 363.274414062 493.676757812 349.930664062 492.909179688 c 0
 336.587890625 492.141601562 323.497070312 488.487304688 311.305664062 483.0078125 c 0
 286.924804688 472.05078125 266.42578125 454.115234375 246.98046875 435.774414062 c 0
 228.298828125 418.153320312 210.208007812 399.905273438 192.748046875 381.072265625 c 0
EndSplineSet
Validated: 524325
EndChar

StartChar: o
Encoding: 111 111 12
Width: 515
VWidth: 0
Flags: HW
LayerCount: 2
UndoRedoHistory
Layer: 1
Undoes
EndUndoes
Redoes
EndRedoes
EndUndoRedoHistory
Fore
SplineSet
327.133789062 517.9296875 m 0
 267.860351562 514.555664062 210.225585938 491.766601562 163.022460938 455.758789062 c 0
 115.819335938 419.750976562 78.95703125 370.86328125 54.84765625 316.610351562 c 0
 32.0380859375 265.283203125 20.408203125 207.990234375 28.64453125 152.430664062 c 0
 36.8798828125 96.8701171875 66.3759765625 43.4189453125 113.151367188 12.3251953125 c 0
 153.209960938 -14.302734375 203.817382812 -23.1787109375 251.344726562 -15.7646484375 c 0
 298.87109375 -8.3515625 343.264648438 14.62109375 379.655273438 46.076171875 c 0
 439.025390625 97.39453125 477.611328125 171.848632812 486.311523438 249.83984375 c 0
 493.342773438 312.869140625 480.12890625 380.1015625 440 429.212890625 c 0
 435.166992188 435.127929688 429.9453125 440.78125 423.89453125 445.444335938 c 0
 417.844726562 450.107421875 410.91796875 453.768554688 403.447265625 455.36328125 c 0
 395.9765625 456.958007812 387.9375 456.390625 381.069335938 453.045898438 c 0
 374.202148438 449.701171875 368.647460938 443.44140625 366.85546875 436.015625 c 0
 365.40625 430.01171875 366.439453125 423.571289062 369.014648438 417.95703125 c 0
 371.588867188 412.342773438 375.62890625 407.499023438 380.1875 403.33203125 c 0
 389.305664062 394.997070312 400.513671875 389.2109375 409.639648438 380.885742188 c 0
 424.463867188 367.360351562 432.842773438 347.825195312 435.870117188 327.98828125 c 0
 438.897460938 308.150390625 436.971679688 287.8828125 433.7890625 268.069335938 c 0
 426.887695312 225.100585938 414.038085938 183.0078125 394.741210938 144 c 0
 373.203125 100.4609375 342.317382812 59.7431640625 299.463867188 36.87109375 c 0
 278.038085938 25.4345703125 253.885742188 18.759765625 229.600585938 19.0693359375 c 0
 205.315429688 19.3798828125 180.94921875 26.8681640625 161.528320312 41.453125 c 0
 142.287109375 55.90234375 128.44140625 76.8154296875 120.243164062 99.4384765625 c 0
 112.044921875 122.061523438 109.255859375 146.372070312 109.52734375 170.43359375 c 0
 110.076171875 219.071289062 122.869140625 266.889648438 140.552734375 312.201171875 c 0
 154.78515625 348.671875 172.626953125 384.465820312 199.510742188 412.924804688 c 0
 212.952148438 427.155273438 228.59375 439.41796875 246.09375 448.189453125 c 0
 263.592773438 456.9609375 282.98046875 462.18359375 302.5546875 462.396484375 c 0
 317.6953125 462.561523438 333.150390625 459.795898438 347.80078125 463.625 c 0
 355.125 465.5390625 362.151367188 469.197265625 367.118164062 474.911132812 c 0
 369.602539062 477.767578125 371.54296875 481.114257812 372.649414062 484.734375 c 0
 373.755859375 488.354492188 374.014648438 492.249023438 373.255859375 495.958007812 c 0
 372.321289062 500.521484375 369.859375 504.7109375 366.556640625 507.99609375 c 0
 363.25390625 511.282226562 359.13671875 513.689453125 354.760742188 515.287109375 c 0
 346.0078125 518.481445312 336.435546875 518.458984375 327.133789062 517.9296875 c 0
EndSplineSet
Validated: 524329
EndChar

StartChar: n
Encoding: 110 110 13
Width: 626
VWidth: 0
Flags: HW
LayerCount: 2
UndoRedoHistory
Layer: 1
Undoes
EndUndoes
Redoes
EndRedoes
EndUndoRedoHistory
Fore
SplineSet
136.717773438 446.725585938 m 0
 138.206054688 437.416992188 143.150390625 429.084960938 146.563476562 420.297851562 c 0
 153.530273438 402.36328125 154.065429688 382.42578125 151.034179688 363.42578125 c 0
 148.001953125 344.424804688 141.553710938 326.155273438 134.844726562 308.122070312 c 0
 106.403320312 231.672851562 72.73046875 157.297851562 39.8115234375 82.6669921875 c 0
 32.9365234375 67.08203125 25.9677734375 50.91015625 26 33.8759765625 c 0
 26.015625 25.359375 27.865234375 16.748046875 32.1005859375 9.3583984375 c 0
 36.3359375 1.9697265625 43.0634765625 -4.1201171875 51.1337890625 -6.8408203125 c 0
 59.48828125 -9.6572265625 68.8681640625 -8.72265625 76.9169921875 -5.1259765625 c 0
 84.966796875 -1.5283203125 91.734375 4.5859375 96.923828125 11.7138671875 c 0
 107.302734375 25.96875 111.38671875 43.6904296875 115.91796875 60.7314453125 c 0
 132.015625 121.267578125 156.514648438 179.173828125 179.859375 237.30078125 c 0
 198.884765625 284.67578125 217.254882812 332.541992188 228.6484375 382.307617188 c 0
 232.352539062 398.48828125 235.32421875 415.049804688 234.205078125 431.611328125 c 0
 233.084960938 448.172851562 227.525390625 464.901367188 216.078125 476.921875 c 0
 209.586914062 483.73828125 201.303710938 488.883789062 192.234375 491.403320312 c 0
 183.166015625 493.922851562 173.331054688 493.7734375 164.432617188 490.708007812 c 0
 155.533203125 487.641601562 147.629882812 481.630859375 142.533203125 473.71875 c 0
 137.436523438 465.805664062 135.231445312 456.01953125 136.717773438 446.725585938 c 0
209.341796875 388.927734375 m 0
 179.331054688 235.533203125 l 1
 200.390625 287.004882812 230.298828125 334.841796875 267.349609375 376.314453125 c 0
 292.48828125 404.452148438 322.42578125 430.515625 358.978515625 439.87109375 c 0
 377.254882812 444.548828125 396.876953125 444.759765625 414.815429688 438.916992188 c 0
 432.75390625 433.075195312 448.854492188 420.934570312 458.073242188 404.475585938 c 0
 467.119140625 388.323242188 469.181640625 368.951171875 466.8515625 350.584960938 c 0
 464.522460938 332.219726562 458.067382812 314.639648438 450.912109375 297.565429688 c 0
 426.134765625 238.443359375 392.3046875 182.848632812 374.848632812 121.166992188 c 0
 370.364257812 105.321289062 366.9765625 88.998046875 367.248046875 72.5322265625 c 0
 367.51953125 56.06640625 371.655273438 39.3525390625 381.12890625 25.8818359375 c 0
 391.229492188 11.5205078125 406.9609375 1.6044921875 423.881835938 -3.0771484375 c 0
 440.803710938 -7.759765625 458.850585938 -7.44921875 476.06640625 -4 c 0
 510.497070312 2.896484375 541.118164062 21.7158203125 572.392578125 37.6826171875 c 0
 579.635742188 41.3798828125 587.1328125 45.0732421875 592.599609375 51.09375 c 0
 595.333007812 54.103515625 597.50390625 57.681640625 598.53515625 61.615234375 c 0
 599.56640625 65.5478515625 599.407226562 69.845703125 597.733398438 73.55078125 c 0
 595.755859375 77.9287109375 591.759765625 81.2314453125 587.243164062 82.8662109375 c 0
 582.725585938 84.5 577.735351562 84.55859375 573.034179688 83.5751953125 c 0
 563.630859375 81.6083984375 555.598632812 75.7587890625 547.536132812 70.5361328125 c 0
 537.650390625 64.1328125 527.2890625 58.484375 516.697265625 53.3330078125 c 0
 505.795898438 48.03125 494.453125 43.19921875 482.427734375 41.6669921875 c 0
 476.416015625 40.9013671875 470.268554688 40.9794921875 464.338867188 42.2373046875 c 0
 458.41015625 43.494140625 452.701171875 45.9521484375 447.912109375 49.6669921875 c 0
 443.139648438 53.3701171875 439.34765625 58.2705078125 436.681640625 63.6904296875 c 0
 434.015625 69.111328125 432.456054688 75.0419921875 431.798828125 81.046875 c 0
 430.483398438 93.0556640625 432.73828125 105.18359375 435.9609375 116.827148438 c 0
 451.861328125 174.274414062 490.477539062 222.333984375 516.782226562 275.822265625 c 0
 529.935546875 302.567382812 540.133789062 331.21875 542.235351562 360.948242188 c 0
 544.336914062 390.676757812 537.783203125 421.677734375 520.081054688 445.655273438 c 0
 505.690429688 465.147460938 484.5 479.17578125 461.416992188 486.536132812 c 0
 438.333007812 493.896484375 413.4453125 494.791015625 389.530273438 490.90625 c 0
 341.69921875 483.137695312 298.889648438 457.07421875 259.7578125 428.493164062 c 0
 242.50390625 415.890625 225.684570312 402.692382812 209.341796875 388.927734375 c 0
EndSplineSet
Validated: 524325
EndChar

StartChar: p
Encoding: 112 112 14
Width: 667
VWidth: 0
Flags: HW
LayerCount: 2
UndoRedoHistory
Layer: 1
Undoes
EndUndoes
Redoes
EndRedoes
EndUndoRedoHistory
Fore
SplineSet
110.009765625 -165.514648438 m 4
 133.642578125 -81.5390625 175.379882812 -4.0244140625 210.7890625 75.7041015625 c 4
 252.4453125 169.500976562 285.564453125 266.966796875 328.8984375 360 c 4
 336.051757812 375.356445312 343.57421875 390.890625 345.947265625 407.6640625 c 4
 347.133789062 416.05078125 346.986328125 424.688476562 344.845703125 432.883789062 c 4
 342.704101562 441.079101562 338.5078125 448.819335938 332.331054688 454.615234375 c 4
 323.901367188 462.524414062 311.86328125 466.430664062 300.399414062 464.953125 c 4
 288.935546875 463.475585938 278.272460938 456.634765625 272.170898438 446.818359375 c 4
 265.56640625 436.192382812 264.458984375 423.193359375 262.815429688 410.791015625 c 4
 256.767578125 365.138671875 241.306640625 321.319335938 225.252929688 278.157226562 c 4
 181.69921875 161.063476562 132.934570312 45.642578125 72.7470703125 -63.8349609375 c 4
 55.427734375 -95.337890625 36.939453125 -126.9140625 28.89453125 -161.953125 c 4
 26.02734375 -174.439453125 24.556640625 -187.6328125 27.998046875 -199.973632812 c 4
 29.7177734375 -206.143554688 32.6796875 -212.014648438 36.951171875 -216.788085938 c 4
 41.2236328125 -221.560546875 46.837890625 -225.200195312 53.0556640625 -226.7421875 c 4
 60.5927734375 -228.611328125 68.7333984375 -227.315429688 75.6923828125 -223.869140625 c 4
 82.650390625 -220.421875 88.470703125 -214.928710938 92.982421875 -208.608398438 c 4
 102.004882812 -195.96875 105.802734375 -180.463867188 110.009765625 -165.514648438 c 4
295.716796875 374.255859375 m 4
 303.416015625 308.091796875 l 5
 308.948242188 321.809570312 316.051757812 334.892578125 324.541015625 347.00390625 c 4
 347.111328125 379.205078125 380.454101562 404.6484375 418.748046875 413.587890625 c 4
 437.89453125 418.057617188 458.067382812 418.366210938 477.216796875 413.90625 c 4
 496.366210938 409.447265625 514.448242188 400.170898438 528.84765625 386.783203125 c 4
 545.002929688 371.763671875 556.259765625 351.830078125 562.185546875 330.58203125 c 4
 568.110351562 309.334960938 568.8359375 286.8125 565.743164062 264.97265625 c 4
 558.543945312 214.143554688 529.319335938 166.015625 485.337890625 139.538085938 c 4
 459.598632812 124.04296875 429.908203125 116.153320312 403.876953125 101.155273438 c 4
 390.861328125 93.65625 378.713867188 84.275390625 369.697265625 72.26171875 c 4
 360.680664062 60.2470703125 354.958007812 45.416015625 355.50390625 30.404296875 c 4
 356.04296875 15.5634765625 362.736328125 1.2509765625 372.903320312 -9.5732421875 c 4
 383.069335938 -20.3974609375 396.53515625 -27.8447265625 410.802734375 -31.9619140625 c 4
 439.338867188 -40.1962890625 469.953125 -35.388671875 498.76953125 -28.1943359375 c 4
 506.931640625 -26.1572265625 515.365234375 -23.7666015625 521.659179688 -18.18359375 c 4
 524.805664062 -15.392578125 527.326171875 -11.8134765625 528.481445312 -7.76953125 c 4
 529.63671875 -3.724609375 529.346679688 0.7939453125 527.306640625 4.47265625 c 4
 525.43359375 7.849609375 522.1875 10.361328125 518.56640625 11.7041015625 c 4
 514.9453125 13.046875 510.97265625 13.27734375 507.143554688 12.7666015625 c 4
 499.487304688 11.7451171875 492.548828125 7.912109375 485.5703125 4.6005859375 c 4
 477.635742188 0.833984375 469.3671875 -2.3466796875 460.745117188 -4.02734375 c 4
 452.124023438 -5.7080078125 443.11328125 -5.8505859375 434.619140625 -3.6123046875 c 4
 426.125976562 -1.375 418.172851562 3.34375 412.76171875 10.2626953125 c 4
 407.350585938 17.1826171875 404.668945312 26.36328125 406.288085938 34.99609375 c 4
 407.975585938 43.9990234375 414.068359375 51.6865234375 421.365234375 57.22265625 c 4
 428.663085938 62.7578125 437.165039062 66.4375 445.536132812 70.15625 c 4
 506.169921875 97.0927734375 566.96875 130.838867188 604.569335938 185.50390625 c 4
 627.71484375 219.153320312 640.8359375 259.9609375 639.620117188 300.784179688 c 4
 638.405273438 341.606445312 622.483398438 382.170898438 594.1484375 411.583007812 c 4
 562.182617188 444.766601562 515.65234375 462.41796875 469.577148438 462.340820312 c 4
 423.500976562 462.264648438 378.197265625 445.227539062 341.180664062 417.791015625 c 4
 324.279296875 405.263671875 308.96484375 390.598632812 295.716796875 374.255859375 c 4
EndSplineSet
Validated: 524325
EndChar

StartChar: q
Encoding: 113 113 16
Width: 609
VWidth: 0
Flags: HW
LayerCount: 2
UndoRedoHistory
Layer: 1
Undoes
EndUndoes
Redoes
EndRedoes
EndUndoRedoHistory
Fore
SplineSet
29.251953125 191.447265625 m 0
 23.22265625 158.89453125 25.61328125 124.817382812 36.12890625 93.42578125 c 0
 46.615234375 62.123046875 65.5556640625 33.1455078125 92.3095703125 13.8056640625 c 0
 117.51953125 -4.41796875 148.772460938 -13.419921875 179.87109375 -14.1396484375 c 0
 210.961914062 -14.8583984375 241.934570312 -7.5869140625 270.555664062 4.5791015625 c 0
 327.801757812 28.912109375 374.83203125 71.740234375 420.9140625 113.520507812 c 0
 427.083007812 119.11328125 433.28515625 124.732421875 438.5 131.223632812 c 0
 443.71484375 137.715820312 447.943359375 145.176757812 449.606445312 153.3359375 c 0
 451.268554688 161.495117188 450.162109375 170.411132812 445.508789062 177.31640625 c 0
 443.182617188 180.76953125 440.001953125 183.666015625 436.274414062 185.520507812 c 0
 432.546875 187.374023438 428.272460938 188.163085938 424.146484375 187.60546875 c 0
 420.747070312 187.146484375 417.5 185.79296875 414.641601562 183.897460938 c 0
 411.783203125 182.002929688 409.30078125 179.577148438 407.145507812 176.909179688 c 0
 402.833984375 171.573242188 399.8359375 165.327148438 396.528320312 159.317382812 c 0
 377.942382812 125.5546875 348.99609375 98.5546875 317.75390625 75.9873046875 c 0
 289.05078125 55.2548828125 257.190429688 37.4580078125 222.249023438 31.734375 c 0
 204.77734375 28.873046875 186.69921875 29.125 169.5390625 33.4775390625 c 0
 152.377929688 37.8310546875 136.165039062 46.3720703125 123.5625 58.8056640625 c 0
 105.890625 76.2392578125 96.06640625 100.584960938 93.14453125 125.236328125 c 0
 90.22265625 149.887695312 93.77734375 174.920898438 99.9267578125 198.970703125 c 0
 121.389648438 282.907226562 174.551757812 356.907226562 242.001953125 411.279296875 c 0
 258.956054688 424.946289062 277.111328125 437.627929688 297.6171875 444.956054688 c 0
 318.124023438 452.284179688 341.364257812 453.845703125 361.46484375 445.466796875 c 0
 374.224609375 440.147460938 385.456054688 431.012695312 398.951171875 428.01171875 c 0
 405.698242188 426.51171875 413.005859375 426.690429688 419.233398438 429.689453125 c 0
 422.34765625 431.189453125 425.145507812 433.381835938 427.21875 436.147460938 c 0
 429.291992188 438.912109375 430.623046875 442.255859375 430.858398438 445.703125 c 0
 431.225585938 451.0859375 428.916015625 456.399414062 425.471679688 460.55078125 c 0
 422.026367188 464.702148438 417.515625 467.827148438 412.89453125 470.610351562 c 0
 394.178710938 481.885742188 372.724609375 488.352539062 350.963867188 490.326171875 c 0
 329.203125 492.30078125 307.140625 489.848632812 286.053710938 484.12109375 c 0
 243.885742188 472.666015625 206.213867188 448.477539062 172.330078125 420.885742188 c 0
 136.548828125 391.748046875 103.986328125 358.211914062 79.0439453125 319.389648438 c 0
 54.142578125 280.629882812 37.1015625 236.84375 29.251953125 191.447265625 c 0
340.387695312 -150.8125 m 0
 376.592773438 -48.1533203125 412.92578125 54.478515625 452.124023438 156.032226562 c 0
 486.224609375 244.379882812 522.584960938 332.098632812 568.046875 415.173828125 c 0
 572.451171875 423.221679688 576.96875 431.290039062 579.75 440.032226562 c 0
 582.532226562 448.774414062 583.484375 458.364257812 580.670898438 467.096679688 c 0
 578.461914062 473.951171875 573.885742188 480.086914062 567.73046875 483.827148438 c 0
 561.576171875 487.567382812 553.859375 488.791992188 546.947265625 486.768554688 c 0
 540.809570312 484.971679688 535.583007812 480.791015625 531.509765625 475.860351562 c 0
 527.436523438 470.9296875 524.399414062 465.2421875 521.42578125 459.580078125 c 0
 458.108398438 338.984375 411.279296875 210.548828125 365.3828125 82.3076171875 c 0
 342.190429688 17.505859375 319.12890625 -47.5 289.48046875 -109.61328125 c 0
 285.908203125 -117.096679688 282.232421875 -124.557617188 279.50390625 -132.387695312 c 0
 276.774414062 -140.21875 275.001953125 -148.483398438 275.375976562 -156.767578125 c 0
 275.75 -165.051757812 278.389648438 -173.379882812 283.706054688 -179.744140625 c 0
 286.364257812 -182.92578125 289.666992188 -185.5859375 293.404296875 -187.381835938 c 0
 297.140625 -189.177734375 301.313476562 -190.098632812 305.455078125 -189.90625 c 0
 310.102539062 -189.690429688 314.635742188 -188.081054688 318.565429688 -185.588867188 c 0
 322.495117188 -183.09765625 325.838867188 -179.74609375 328.600585938 -176.000976562 c 0
 334.123046875 -168.509765625 337.29296875 -159.588867188 340.387695312 -150.8125 c 0
537.122070312 39.9150390625 m 0
 546.658203125 41.515625 556.686523438 42.7177734375 564.668945312 48.17578125 c 0
 568.66015625 50.904296875 572.014648438 54.71484375 573.642578125 59.267578125 c 0
 574.456054688 61.5439453125 574.829101562 63.9853515625 574.651367188 66.396484375 c 0
 574.473632812 68.8076171875 573.739257812 71.1845703125 572.458007812 73.234375 c 0
 571.076171875 75.4443359375 569.081054688 77.2421875 566.819335938 78.537109375 c 0
 564.557617188 79.83203125 562.034179688 80.6357421875 559.461914062 81.060546875 c 0
 554.319335938 81.9111328125 549.057617188 81.2646484375 543.896484375 80.533203125 c 0
 477.21484375 71.087890625 410.671875 46.1904296875 363.12890625 -1.509765625 c 0
 353.752929688 -10.916015625 345.188476562 -21.12890625 337.560546875 -32 c 5
 338.3984375 -152.004882812 l 1
 343.169921875 -138.942382812 348.294921875 -126.009765625 353.765625 -113.224609375 c 0
 362.564453125 -92.658203125 372.31640625 -72.3759765625 385.069335938 -53.9970703125 c 0
 419.94921875 -3.73046875 476.783203125 29.78515625 537.122070312 39.9150390625 c 0
EndSplineSet
Validated: 524325
EndChar

StartChar: r
Encoding: 114 114 17
Width: 685
VWidth: 0
Flags: HW
LayerCount: 2
UndoRedoHistory
Layer: 1
Undoes
EndUndoes
Redoes
EndRedoes
EndUndoRedoHistory
Fore
SplineSet
318.651367188 485.584960938 m 0
 313.890625 484.1953125 309.600585938 481.3984375 306.118164062 477.8671875 c 0
 302.635742188 474.336914062 299.93359375 470.087890625 297.842773438 465.590820312 c 0
 293.66015625 456.596679688 291.8984375 446.708984375 289.5 437.083984375 c 0
 280.1015625 399.368164062 260.680664062 365.041992188 241.5 331.235351562 c 0
 206.772460938 270.024414062 171.948242188 208.502929688 128.481445312 153.155273438 c 0
 108.280273438 127.432617188 85.4931640625 102.528320312 56.1005859375 88.1845703125 c 0
 48.7802734375 84.61328125 40.9931640625 81.6552734375 34.8203125 76.341796875 c 0
 31.7333984375 73.685546875 29.09375 70.4384765625 27.51953125 66.6826171875 c 0
 25.9453125 62.9267578125 25.4892578125 58.638671875 26.6513671875 54.736328125 c 0
 27.8525390625 50.7001953125 30.73828125 47.26171875 34.3232421875 45.05078125 c 0
 37.9072265625 42.8408203125 42.1474609375 41.8095703125 46.357421875 41.7392578125 c 0
 54.7783203125 41.599609375 62.7978515625 45.1357421875 70.2783203125 49.005859375 c 0
 106.060546875 67.51953125 136.517578125 95.1064453125 162.633789062 125.783203125 c 0
 188.749023438 156.4609375 210.811523438 190.326171875 232.928710938 224 c 0
 264.729492188 272.416992188 296.854492188 320.73828125 324.256835938 371.774414062 c 0
 326.477539062 375.909179688 328.674804688 380.075195312 331.3828125 383.909179688 c 0
 334.08984375 387.744140625 337.34375 391.262695312 341.323242188 393.751953125 c 0
 346.586914062 397.044921875 352.8125 398.37109375 358.908203125 399.5546875 c 0
 385.184570312 404.66015625 412.203125 408.19921875 438.67578125 404.236328125 c 0
 445.896484375 403.155273438 453.099609375 401.497070312 459.6875 398.352539062 c 0
 466.275390625 395.20703125 472.251953125 390.481445312 476.013671875 384.224609375 c 0
 478.887695312 379.447265625 480.389648438 373.908203125 480.705078125 368.341796875 c 0
 481.020507812 362.776367188 480.174804688 357.180664062 478.596679688 351.833984375 c 0
 475.439453125 341.140625 469.44921875 331.545898438 463.6171875 322.04296875 c 0
 441.797851562 286.48828125 421.258789062 250.15625 401.651367188 213.3359375 c 0
 386.099609375 184.130859375 370.956054688 154.1171875 364.696289062 121.626953125 c 0
 361.56640625 105.381835938 360.72265625 88.6103515625 363.250976562 72.2607421875 c 0
 365.778320312 55.912109375 371.75 39.9853515625 381.451171875 26.5849609375 c 0
 395.4140625 7.2978515625 416.698242188 -6.05859375 439.583984375 -12.630859375 c 0
 462.469726562 -19.203125 486.88671875 -19.2978515625 510.373046875 -15.3798828125 c 0
 557.345703125 -7.54296875 600.075195312 15.640625 644.000976562 34.03515625 c 0
 646.39453125 35.037109375 648.806640625 36.0322265625 651.006835938 37.408203125 c 0
 653.20703125 38.7841796875 655.20703125 40.57421875 656.45703125 42.8486328125 c 0
 657.62109375 44.966796875 658.0859375 47.447265625 657.860351562 49.853515625 c 0
 657.635742188 52.259765625 656.731445312 54.5869140625 655.348632812 56.5693359375 c 0
 652.583984375 60.5341796875 647.995117188 63.0029296875 643.233398438 63.83203125 c 0
 638.470703125 64.6611328125 633.545898438 63.9697265625 628.920898438 62.5625 c 0
 624.296875 61.1552734375 619.921875 59.0498046875 615.55078125 56.9853515625 c 0
 593.541015625 46.5869140625 571.0078125 36.974609375 547.3515625 31.2353515625 c 0
 531.38671875 27.3623046875 514.833007812 25.2783203125 498.49609375 27 c 0
 482.159179688 28.720703125 466.002929688 34.4189453125 453.299804688 44.8349609375 c 0
 440.978515625 54.9384765625 432.329101562 69.177734375 427.935546875 84.494140625 c 0
 423.541992188 99.810546875 423.280273438 116.15625 426.0390625 131.849609375 c 0
 431.555664062 163.236328125 448.653320312 191.329101562 467.3515625 217.135742188 c 0
 484.923828125 241.389648438 504.225585938 264.420898438 520.431640625 289.608398438 c 0
 536.637695312 314.795898438 549.825195312 342.611328125 553.5 372.3359375 c 0
 555.903320312 391.771484375 554.059570312 412.025390625 545.95703125 429.853515625 c 0
 537.85546875 447.682617188 523.115234375 462.860351562 504.651367188 469.384765625 c 0
 492.634765625 473.630859375 479.583007812 474.137695312 466.887695312 473.028320312 c 0
 454.19140625 471.91796875 441.692382812 469.24609375 429.100585938 467.284179688 c 0
 408.79296875 464.120117188 387.3515625 462.924804688 368.299804688 470.634765625 c 0
 360.091796875 473.95703125 352.596679688 478.833984375 344.477539062 482.369140625 c 0
 340.41796875 484.13671875 336.1875 485.569335938 331.811523438 486.24609375 c 0
 327.435546875 486.922851562 322.901367188 486.825195312 318.651367188 485.584960938 c 0
EndSplineSet
Validated: 524329
EndChar

StartChar: s
Encoding: 115 115 18
Width: 597
VWidth: 0
Flags: HW
LayerCount: 2
UndoRedoHistory
Layer: 1
Undoes
EndUndoes
Redoes
EndRedoes
EndUndoRedoHistory
Fore
SplineSet
419.122070312 316.154296875 m 0
 437.02734375 293.403320312 455.006835938 270.482421875 468.615234375 244.927734375 c 0
 482.223632812 219.373046875 491.361328125 190.784179688 490.243164062 161.853515625 c 0
 489.258789062 136.356445312 480.208984375 111.37109375 465.456054688 90.552734375 c 0
 450.703125 69.734375 430.375 53.0595703125 407.51171875 41.73046875 c 0
 361.786132812 19.0732421875 307.25390625 18.3076171875 258.173828125 32.283203125 c 0
 250.337890625 34.5146484375 242.396484375 37.1298828125 234.259765625 36.712890625 c 0
 230.19140625 36.5048828125 226.119140625 35.5078125 222.604492188 33.447265625 c 0
 219.090820312 31.3876953125 216.165039062 28.2158203125 214.76171875 24.3916015625 c 0
 213.291992188 20.3857421875 213.565429688 15.84375 215.142578125 11.87890625 c 0
 216.71875 7.9140625 219.533203125 4.509765625 222.890625 1.876953125 c 0
 229.607421875 -3.388671875 238.185546875 -5.541015625 246.517578125 -7.38671875 c 0
 317.436523438 -23.0947265625 394.26953125 -25.513671875 460.1875 5 c 0
 493.146484375 20.2568359375 522.6328125 43.7275390625 542.798828125 73.9326171875 c 0
 562.965820312 104.138671875 573.412109375 141.202148438 569.48046875 177.307617188 c 0
 566.85546875 201.418945312 558.016601562 224.567382812 546.016601562 245.64453125 c 0
 534.016601562 266.721679688 518.893554688 285.858398438 503.000976562 304.1796875 c 0
 476.805664062 334.375 447.984375 363.122070312 429.7109375 398.67578125 c 0
 421.981445312 413.713867188 416.266601562 429.787109375 412.766601562 446.330078125 c 1
 371.521484375 376.51171875 l 1
 387.408203125 356.408203125 403.274414062 336.2890625 419.122070312 316.154296875 c 0
27.025390625 64.8916015625 m 0
 28.7109375 60.1123046875 32.4892578125 56.208984375 37.005859375 53.9130859375 c 0
 41.5234375 51.6171875 46.7265625 50.8544921875 51.779296875 51.2412109375 c 0
 61.8837890625 52.013671875 71.076171875 57.12890625 79.8466796875 62.20703125 c 0
 123.737304688 87.62109375 166.506835938 115.134765625 206.352539062 146.512695312 c 0
 277.629882812 202.640625 339.48046875 271.428710938 383.654296875 350.671875 c 0
 408.520507812 395.279296875 428.828125 444.438476562 467.541992188 477.74609375 c 0
 474.21484375 483.48828125 481.400390625 488.716796875 487.202148438 495.338867188 c 0
 490.103515625 498.649414062 492.64453125 502.306640625 494.438476562 506.326171875 c 0
 496.232421875 510.345703125 497.264648438 514.7421875 497.120117188 519.141601562 c 0
 496.94921875 524.36328125 495.106445312 529.485351562 492.095703125 533.754882812 c 0
 489.0859375 538.025390625 484.9375 541.450195312 480.275390625 543.80859375 c 0
 470.952148438 548.525390625 459.858398438 548.889648438 449.68359375 546.51171875 c 0
 433.825195312 542.803710938 419.911132812 532.779296875 409.4765625 520.275390625 c 0
 399.041992188 507.771484375 391.83984375 492.873046875 386.177734375 477.603515625 c 0
 378.44140625 456.739257812 373.409179688 434.965820312 366.045898438 413.967773438 c 0
 340.055664062 339.856445312 286.387695312 278.870117188 229.489257812 224.735351562 c 0
 178.5859375 176.302734375 123.154296875 131.090820312 58.7607421875 102.979492188 c 0
 50.3720703125 99.3173828125 41.6494140625 95.8271484375 34.9541015625 89.5849609375 c 0
 31.6064453125 86.4638671875 28.8271484375 82.6630859375 27.2861328125 78.353515625 c 0
 25.74609375 74.0439453125 25.50390625 69.20703125 27.025390625 64.8916015625 c 0
EndSplineSet
Validated: 524325
EndChar

StartChar: t
Encoding: 116 116 19
Width: 658
VWidth: 0
Flags: HW
LayerCount: 2
UndoRedoHistory
Layer: 1
Undoes
EndUndoes
Redoes
EndRedoes
EndUndoRedoHistory
Fore
SplineSet
465.776367188 827.99609375 m 4
 457.6484375 827.883789062 449.565429688 825.55859375 442.60546875 821.359375 c 4
 435.64453125 817.161132812 429.823242188 811.102539062 425.876953125 803.99609375 c 4
 419.815429688 793.077148438 418.336914062 780.302734375 416.52734375 767.946289062 c 4
 410.241210938 725.024414062 398.629882812 683.05078125 385.375976562 641.74609375 c 4
 350.139648438 531.932617188 303.2265625 426.283203125 256.15625 320.999023438 c 4
 237.686523438 279.685546875 219.038085938 237.963867188 210.126953125 193.595703125 c 4
 202.943359375 157.823242188 202.456054688 119.6953125 216.077148438 85.8466796875 c 4
 225.932617188 61.3544921875 242.916992188 39.982421875 263.671875 23.666015625 c 4
 284.426757812 7.349609375 308.865234375 -4.0068359375 334.375976562 -10.8037109375 c 4
 377.604492188 -22.3232421875 423.520507812 -20.8466796875 467.424804688 -12.255859375 c 4
 511.329101562 -3.666015625 553.557617188 11.8369140625 595.17578125 28.2470703125 c 4
 604.690429688 31.998046875 614.45703125 35.974609375 621.7421875 43.15234375 c 4
 625.384765625 46.7412109375 628.330078125 51.1142578125 629.831054688 56.0029296875 c 4
 631.33203125 60.8916015625 631.322265625 66.30859375 629.364257812 71.033203125 c 4
 628.122070312 74.0302734375 626.125 76.6982421875 623.669921875 78.818359375 c 4
 621.213867188 80.9384765625 618.305664062 82.5166015625 615.22265625 83.525390625 c 4
 609.0546875 85.5419921875 602.2890625 85.2578125 596.03125 83.541015625 c 4
 583.516601562 80.1064453125 573.275390625 71.392578125 562.576171875 64.046875 c 4
 523.995117188 37.556640625 476.075195312 27.5107421875 429.27734375 26.99609375 c 4
 402.71875 26.703125 375.698242188 29.3935546875 351.122070312 39.466796875 c 4
 326.545898438 49.5400390625 304.506835938 67.6767578125 293.828125 91.99609375 c 4
 284.353515625 113.573242188 284.39453125 138.05078125 286.228515625 161.545898438 c 4
 298.030273438 312.807617188 375.583984375 449.580078125 439.232421875 587.305664062 c 4
 460.844726562 634.072265625 481.025390625 681.52734375 498.627929688 729.946289062 c 4
 504.299804688 745.546875 509.76953125 761.619140625 509.71484375 778.219726562 c 4
 509.6875 786.51953125 508.239257812 794.875976562 504.874023438 802.462890625 c 4
 501.508789062 810.05078125 496.168945312 816.844726562 489.228515625 821.395507812 c 4
 482.3359375 825.915039062 474.017578125 828.109375 465.776367188 827.99609375 c 4
517.856445312 517.768554688 m 4
 467.9296875 504.502929688 415.87890625 501.829101562 364.263671875 499.689453125 c 4
 317.834960938 497.765625 270.80859375 496.268554688 225.41796875 506.219726562 c 4
 212.430664062 509.067382812 199.435546875 512.864257812 186.145507812 512.498046875 c 4
 179.5 512.315429688 172.825195312 511.059570312 166.806640625 508.236328125 c 4
 160.788085938 505.413085938 155.448242188 500.961914062 152.098632812 495.219726562 c 4
 149.47265625 490.719726562 148.118164062 485.512695312 148.030273438 480.302734375 c 4
 147.94140625 475.092773438 149.100585938 469.88671875 151.216796875 465.125 c 4
 155.450195312 455.602539062 163.404296875 448.049804688 172.502929688 442.96875 c 4
 182.727539062 437.259765625 194.375976562 434.47265625 206.034179688 433.365234375 c 4
 217.692382812 432.2578125 229.436523438 432.766601562 241.135742188 433.282226562 c 4
 339.5625 437.61328125 439.642578125 442.586914062 532.513671875 475.47265625 c 4
 540.299804688 478.229492188 548.251953125 481.323242188 554.188476562 487.06640625 c 4
 557.15625 489.9375 559.555664062 493.458007812 560.788085938 497.399414062 c 4
 562.020507812 501.341796875 562.033203125 505.71484375 560.48046875 509.541992188 c 4
 558.984375 513.228515625 556.095703125 516.266601562 552.661132812 518.274414062 c 4
 549.2265625 520.282226562 545.26953125 521.298828125 541.30078125 521.57421875 c 4
 533.364257812 522.125 525.545898438 519.811523438 517.856445312 517.768554688 c 4
60.994140625 113.9765625 m 4
 51.3095703125 109.887695312 41.17578125 105.87890625 33.9267578125 98.2666015625 c 4
 30.3017578125 94.4599609375 27.501953125 89.767578125 26.4453125 84.619140625 c 4
 25.388671875 79.470703125 26.1845703125 73.859375 29.1171875 69.4970703125 c 4
 31.478515625 65.984375 35.1142578125 63.41796875 39.1083984375 62.017578125 c 4
 43.103515625 60.6162109375 47.4384765625 60.3369140625 51.6416015625 60.8388671875 c 4
 60.0478515625 61.841796875 67.7587890625 65.83203125 75.2900390625 69.697265625 c 4
 139.786132812 102.790039062 208.428710938 132.892578125 257.055664062 186.655273438 c 4
 269.997070312 200.962890625 281.296875 216.754882812 290.661132812 233.622070312 c 5
 271.391601562 333.467773438 l 5
 261.655273438 318.872070312 252.705078125 303.750976562 244.591796875 288.193359375 c 4
 236.758789062 273.171875 229.69921875 257.73046875 221.071289062 243.150390625 c 4
 185.55078125 183.125 125.25 141.106445312 60.994140625 113.9765625 c 4
EndSplineSet
Validated: 524325
EndChar

StartChar: u
Encoding: 117 117 20
Width: 620
VWidth: 0
Flags: HW
LayerCount: 2
UndoRedoHistory
Layer: 1
Undoes
EndUndoes
Redoes
EndRedoes
EndUndoRedoHistory
Fore
SplineSet
411.068359375 49.6396484375 m 4
 406.625976562 54.365234375 403.784179688 60.48046875 402.540039062 66.8466796875 c 4
 401.296875 73.212890625 401.602539062 79.82421875 402.930664062 86.1728515625 c 4
 405.5859375 98.87109375 412.170898438 110.344726562 418.580078125 121.624023438 c 4
 468.875976562 210.123046875 514.267578125 301.678710938 548.775390625 397.444335938 c 4
 554.493164062 413.311523438 559.967773438 429.59765625 560.380859375 446.458984375 c 4
 560.587890625 454.888671875 559.497070312 463.401367188 556.616210938 471.327148438 c 4
 553.734375 479.252929688 549.017578125 486.579101562 542.606445312 492.057617188 c 4
 536.975585938 496.870117188 530.086914062 500.197265625 522.815429688 501.606445312 c 4
 515.543945312 503.014648438 507.907226562 502.5 500.893554688 500.120117188 c 4
 493.879882812 497.739257812 487.505859375 493.498046875 482.609375 487.940429688 c 4
 477.711914062 482.383789062 474.305664062 475.524414062 472.846679688 468.262695312 c 4
 470.684570312 457.501953125 472.768554688 446.405273438 473.090820312 435.434570312 c 4
 473.958984375 405.84375 462.03125 377.573242188 450.72265625 350.21484375 c 4
 424.249023438 286.170898438 399.849609375 220.923828125 365.177734375 160.921875 c 4
 356.439453125 145.799804688 347.030273438 130.974609375 340.282226562 114.865234375 c 4
 333.534179688 98.755859375 329.520507812 81.0322265625 332.18359375 63.7705078125 c 4
 333.99609375 52.0224609375 338.888671875 40.810546875 345.951171875 31.2490234375 c 4
 353.014648438 21.6875 362.215820312 13.765625 372.52734375 7.849609375 c 4
 393.1484375 -3.982421875 417.814453125 -7.6064453125 441.475585938 -5.287109375 c 4
 488.798828125 -0.6494140625 530.581054688 25.98828125 572.30078125 48.802734375 c 4
 577.670898438 51.7392578125 583.171875 54.7001953125 587.362304688 59.16015625 c 4
 589.458007812 61.390625 591.197265625 63.98828125 592.229492188 66.869140625 c 4
 593.26171875 69.75 593.564453125 72.923828125 592.85546875 75.900390625 c 4
 592.295898438 78.25 591.115234375 80.4384765625 589.521484375 82.2529296875 c 4
 587.927734375 84.068359375 585.926757812 85.51171875 583.735351562 86.52734375 c 4
 579.353515625 88.560546875 574.296875 88.85546875 569.546875 87.974609375 c 4
 560.047851562 86.212890625 552.036132812 80.1318359375 543.87109375 74.966796875 c 4
 522.94140625 61.7236328125 499.182617188 53.7626953125 475.662109375 46 c 4
 464.815429688 42.4189453125 453.78125 38.8212890625 442.364257812 38.4384765625 c 4
 436.65625 38.24609375 430.887695312 38.8779296875 425.467773438 40.6787109375 c 4
 420.046875 42.4794921875 414.98046875 45.478515625 411.068359375 49.6396484375 c 4
107.068359375 75.2392578125 m 4
 104.430664062 86.1767578125 105.1484375 97.705078125 107.51953125 108.702148438 c 4
 109.890625 119.700195312 113.87109375 130.274414062 117.780273438 140.823242188 c 4
 149.231445312 225.680664062 177.03515625 311.834960938 206.375976562 397.444335938 c 4
 211.845703125 413.40625 217.427734375 429.649414062 217.958007812 446.514648438 c 4
 218.223632812 454.947265625 217.192382812 463.475585938 214.32421875 471.409179688 c 4
 211.455078125 479.34375 206.698242188 486.669921875 200.206054688 492.057617188 c 4
 194.403320312 496.874023438 187.275390625 500.068359375 179.82421875 501.228515625 c 4
 172.372070312 502.388671875 164.619140625 501.514648438 157.600585938 498.756835938 c 4
 150.58203125 495.998046875 144.314453125 491.366210938 139.591796875 485.487304688 c 4
 134.868164062 479.608398438 131.697265625 472.499023438 130.446289062 465.0625 c 4
 128.981445312 456.352539062 130.1171875 447.448242188 130.690429688 438.634765625 c 4
 132.62109375 408.938476562 128.083984375 379.1484375 121.122070312 350.21484375 c 4
 109.0546875 300.055664062 89.7138671875 251.848632812 66.607421875 205.721679688 c 4
 54.6484375 181.846679688 41.599609375 158.3203125 33.5205078125 132.869140625 c 4
 25.4404296875 107.41796875 22.6171875 79.3935546875 31.3837890625 54.1708984375 c 4
 39.162109375 31.791015625 55.8017578125 12.9658203125 76.1416015625 0.8154296875 c 4
 96.4814453125 -11.333984375 120.321289062 -17.03515625 144.01171875 -17.3740234375 c 4
 191.391601562 -18.0517578125 236.603515625 1.888671875 277.887695312 25.146484375 c 4
 320.112304688 48.9345703125 360.50390625 76.9375 393.100585938 112.802734375 c 4
 400.939453125 121.427734375 408.548828125 130.975585938 410.91015625 142.388671875 c 4
 412.090820312 148.095703125 411.859375 154.168945312 409.693359375 159.579101562 c 4
 407.52734375 164.989257812 403.331054688 169.668945312 397.948242188 171.900390625 c 4
 393.180664062 173.876953125 387.713867188 173.860351562 382.776367188 172.358398438 c 4
 377.838867188 170.85546875 373.408203125 167.939453125 369.671875 164.37890625 c 4
 362.198242188 157.258789062 357.51953125 147.791015625 352.1640625 138.966796875 c 4
 333.059570312 107.485351562 304.31640625 82.994140625 274.0625 62 c 4
 246.916992188 43.162109375 216.60546875 26.19921875 183.584960938 25.03125 c 4
 167.075195312 24.447265625 150.220703125 28.0341796875 136.1328125 36.6640625 c 4
 122.045898438 45.2939453125 110.94140625 59.1796875 107.068359375 75.2392578125 c 4
EndSplineSet
Validated: 524325
EndChar

StartChar: v
Encoding: 118 118 21
Width: 613
VWidth: 0
Flags: HW
LayerCount: 2
UndoRedoHistory
Layer: 1
Undoes
EndUndoes
Redoes
EndRedoes
EndUndoRedoHistory
Fore
SplineSet
107.770507812 472.637695312 m 4
 109.151367188 480.401367188 112.969726562 487.67578125 118.388671875 493.404296875 c 4
 123.80859375 499.131835938 130.791015625 503.3203125 138.322265625 505.65625 c 4
 153.385742188 510.327148438 170.217773438 507.422851562 183.930664062 499.6328125 c 4
 200.939453125 489.96875 213.278320312 473.338867188 220.453125 455.139648438 c 4
 227.62890625 436.94140625 230.005859375 417.182617188 230.484375 397.626953125 c 4
 231.443359375 358.439453125 225.0078125 319.26171875 213.650390625 281.745117188 c 4
 189.20703125 201.000976562 142.70703125 128.938476562 109.370117188 51.4423828125 c 4
 102.486328125 35.4404296875 95.7197265625 18.5654296875 82.583984375 7.1240234375 c 4
 76.015625 1.4033203125 67.888671875 -2.7412109375 59.2255859375 -3.6474609375 c 4
 54.89453125 -4.1005859375 50.4658203125 -3.7373046875 46.3046875 -2.455078125 c 4
 42.142578125 -1.171875 38.2548828125 1.041015625 35.119140625 4.0634765625 c 4
 31.0341796875 8.001953125 28.30859375 13.240234375 26.9970703125 18.7607421875 c 4
 25.685546875 24.28125 25.744140625 30.07421875 26.7275390625 35.6630859375 c 4
 28.6943359375 46.8388671875 34.21875 57.0234375 39.662109375 66.98046875 c 4
 80.57421875 141.813476562 121.913085938 217.504882812 144.091796875 299.856445312 c 4
 148.540039062 316.370117188 152.213867188 333.225585938 152.599609375 350.323242188 c 4
 152.985351562 367.420898438 149.9296875 384.87890625 141.609375 399.8203125 c 4
 135.8046875 410.244140625 127.645507812 419.134765625 120.814453125 428.916992188 c 4
 116.34375 435.317382812 112.4140625 442.163085938 109.918945312 449.560546875 c 4
 107.422851562 456.958007812 106.40234375 464.951171875 107.770507812 472.637695312 c 4
100.793945312 53.9462890625 m 0
 169.549804688 35.2294921875 243.669921875 41.607421875 311.217773438 64.2958984375 c 0
 359.487304688 80.5087890625 405.466796875 105.25390625 442.057617188 140.665039062 c 0
 478.647460938 176.076171875 505.41015625 222.65234375 512.4765625 273.080078125 c 0
 519.061523438 320.071289062 508.307617188 368.694335938 485.97265625 410.559570312 c 0
 478.659179688 424.267578125 470.044921875 437.54296875 466.01953125 452.548828125 c 0
 464.006835938 460.052734375 463.193359375 467.953125 464.397460938 475.627929688 c 0
 465.600585938 483.302734375 468.904296875 490.74609375 474.342773438 496.29296875 c 0
 479.904296875 501.96484375 487.524414062 505.448242188 495.3984375 506.491210938 c 0
 503.2734375 507.534179688 511.375 506.211914062 518.739257812 503.235351562 c 0
 533.46875 497.283203125 544.857421875 485.12109375 553.809570312 471.997070312 c 0
 582.61328125 429.766601562 590.010742188 375.8203125 584.459960938 325.004882812 c 0
 572.88671875 219.049804688 507.668945312 122.856445312 420.166015625 62 c 0
 319.243164062 -8.1923828125 189.260742188 -33.6357421875 68.4501953125 -10.8935546875 c 0
 61.1689453125 -9.5224609375 53.853515625 -7.9658203125 47.0849609375 -4.9521484375 c 0
 40.3154296875 -1.9384765625 34.0595703125 2.66015625 30.220703125 8.998046875 c 0
 26.8486328125 14.5625 25.5068359375 21.283203125 26.23046875 27.7490234375 c 0
 26.955078125 34.21484375 29.7021484375 40.404296875 33.81640625 45.4453125 c 0
 37.9306640625 50.4853515625 43.3798828125 54.3857421875 49.3828125 56.896484375 c 0
 55.3857421875 59.408203125 61.927734375 60.5478515625 68.4345703125 60.4775390625 c 0
 79.4716796875 60.359375 90.1435546875 56.845703125 100.793945312 53.9462890625 c 0
EndSplineSet
Validated: 524325
EndChar

StartChar: x
Encoding: 120 120 22
Width: 687
VWidth: 0
Flags: HW
LayerCount: 2
UndoRedoHistory
Layer: 1
Undoes
EndUndoes
Redoes
EndRedoes
EndUndoRedoHistory
Fore
SplineSet
28.0576171875 51.3369140625 m 0
 30.251953125 46.9248046875 34.171875 43.482421875 38.6650390625 41.4580078125 c 0
 43.158203125 39.4326171875 48.193359375 38.7705078125 53.1103515625 39.1025390625 c 0
 62.9443359375 39.767578125 72.0654296875 44.234375 80.876953125 48.650390625 c 0
 129.326171875 72.9287109375 177.418945312 98.240234375 222.211914062 128.7421875 c 0
 310.510742188 188.868164062 384.333984375 267.997070312 470.729492188 330.828125 c 0
 516.901367188 364.40625 566.615234375 393.24609375 619.251953125 415.354492188 c 0
 626.555664062 418.421875 633.9765625 421.392578125 640.533203125 425.836914062 c 0
 647.090820312 430.282226562 652.81640625 436.405273438 655.231445312 443.950195312 c 0
 657.411132812 450.759765625 656.703125 458.35546875 653.75390625 464.869140625 c 0
 650.8046875 471.3828125 645.7109375 476.823242188 639.666992188 480.643554688 c 0
 633.623046875 484.463867188 626.659179688 486.708984375 619.573242188 487.66796875 c 0
 612.48828125 488.627929688 605.272460938 488.329101562 598.194335938 487.319335938 c 0
 580.0546875 484.731445312 562.806640625 477.513671875 547.059570312 468.143554688 c 0
 531.3125 458.774414062 516.951171875 447.267578125 502.911132812 435.494140625 c 0
 421.783203125 367.463867188 349.603515625 289.337890625 268.920898438 220.780273438 c 0
 208.0859375 169.0859375 141.46875 122.399414062 66.189453125 95.8251953125 c 0
 55.6904296875 92.119140625 44.7236328125 88.630859375 36.3857421875 81.251953125 c 0
 32.216796875 77.5625 28.8056640625 72.90625 27.1201171875 67.6005859375 c 0
 25.43359375 62.2958984375 25.5771484375 56.3212890625 28.0576171875 51.3369140625 c 0
304.828125 425.44140625 m 0
 298.532226562 438.333007812 291.473632812 450.984375 282.124023438 461.865234375 c 0
 272.7734375 472.747070312 260.958984375 481.840820312 247.294921875 486.213867188 c 0
 237.578125 489.32421875 226.859375 489.935546875 217.213867188 486.609375 c 0
 212.390625 484.946289062 207.885742188 482.3125 204.193359375 478.791992188 c 0
 200.5 475.272460938 197.634765625 470.860351562 196.08984375 465.998046875 c 0
 194.581054688 461.249023438 194.346679688 456.142578125 195.073242188 451.212890625 c 0
 195.799804688 446.283203125 197.46875 441.522460938 199.668945312 437.052734375 c 0
 204.071289062 428.112304688 210.529296875 420.3828125 216.572265625 412.458007812 c 0
 266.650390625 346.78125 289.849609375 265.032226562 310.905273438 185.169921875 c 0
 321.900390625 143.465820312 332.830078125 101.103515625 354.328125 63.7138671875 c 0
 365.076171875 45.01953125 378.459960938 27.7041015625 394.837890625 13.6767578125 c 0
 411.216796875 -0.3515625 430.66796875 -11.0263671875 451.672851562 -15.908203125 c 0
 480.87890625 -22.6953125 511.694335938 -18.078125 540.270507812 -9 c 0
 568.84765625 0.078125 595.82421875 13.484375 623.5859375 24.8125 c 0
 632.765625 28.5576171875 642.262695312 32.2158203125 649.610351562 38.8720703125 c 0
 653.284179688 42.2001953125 656.35546875 46.2685546875 658.111328125 50.904296875 c 0
 659.8671875 55.5400390625 660.249023438 60.76171875 658.740234375 65.484375 c 0
 656.903320312 71.2314453125 652.340820312 75.9091796875 646.891601562 78.4990234375 c 0
 641.442382812 81.08984375 635.18359375 81.705078125 629.203125 80.904296875 c 0
 617.2421875 79.302734375 606.755859375 72.419921875 596.5546875 65.9716796875 c 0
 577.793945312 54.115234375 558.2578125 43.052734375 536.999023438 36.6826171875 c 0
 515.739257812 30.3125 492.459960938 28.8935546875 471.516601562 36.234375 c 0
 452.037109375 43.060546875 435.649414062 57.087890625 423.296875 73.6240234375 c 0
 410.944335938 90.1611328125 402.331054688 109.176757812 394.96875 128.459960938 c 0
 358.01171875 225.26953125 350.299804688 332.327148438 304.828125 425.44140625 c 0
EndSplineSet
Validated: 524325
EndChar

StartChar: y
Encoding: 121 121 23
Width: 620
VWidth: 0
Flags: HW
LayerCount: 2
UndoRedoHistory
Layer: 1
Undoes
EndUndoes
Redoes
EndRedoes
EndUndoRedoHistory
Fore
SplineSet
142.557617188 42.4736328125 m 4
 148.518554688 36.2607421875 156.22265625 31.8369140625 164.442382812 29.27734375 c 4
 172.662109375 26.716796875 181.388671875 25.9765625 189.979492188 26.5458984375 c 4
 207.16015625 27.68359375 223.555664062 33.9228515625 239.453125 40.537109375 c 4
 281.4453125 58.0078125 322.463867188 78.8037109375 357.95703125 107.243164062 c 4
 393.450195312 135.682617188 423.337890625 172.24609375 438.8515625 215 c 4
 441.646484375 222.703125 443.993164062 230.630859375 447.950195312 237.806640625 c 4
 451.907226562 244.982421875 457.750976562 251.494140625 465.4375 254.333984375 c 4
 470.022460938 256.028320312 475.088867188 256.328125 479.875976562 255.341796875 c 4
 484.663085938 254.35546875 489.1640625 252.102539062 492.926757812 248.983398438 c 4
 500.453125 242.74609375 504.827148438 233.1953125 505.856445312 223.474609375 c 4
 506.885742188 213.75390625 504.77734375 203.884765625 501.016601562 194.862304688 c 4
 497.255859375 185.838867188 491.88671875 177.579101562 486.1875 169.63671875 c 4
 428.178710938 88.806640625 336.173828125 39.314453125 243.280273438 3.685546875 c 4
 215.728515625 -6.8828125 187.262695312 -16.5888671875 157.767578125 -17.486328125 c 4
 143.01953125 -17.935546875 128.12109375 -16.1298828125 114.1953125 -11.2548828125 c 4
 100.26953125 -6.3798828125 87.3349609375 1.6357421875 77.4501953125 12.58984375 c 4
 66.7099609375 24.494140625 59.8154296875 39.609375 56.67578125 55.3330078125 c 4
 53.537109375 71.056640625 54.048828125 87.376953125 56.96484375 103.143554688 c 4
 62.7978515625 134.674804688 77.919921875 163.591796875 92.494140625 192.155273438 c 4
 120.16015625 246.375 146.599609375 301.423828125 166.211914062 359.047851562 c 4
 174.265625 382.712890625 181.166015625 406.829101562 185.37890625 431.46875 c 4
 187.432617188 443.484375 188.986328125 456.009765625 195.38671875 466.383789062 c 4
 201.046875 475.557617188 210.434570312 482.41015625 220.954101562 484.756835938 c 4
 231.474609375 487.104492188 242.987304688 484.844726562 251.694335938 478.491210938 c 4
 258.381835938 473.611328125 263.302734375 466.512695312 266.150390625 458.739257812 c 4
 268.998046875 450.966796875 269.836914062 442.541992188 269.24609375 434.28515625 c 4
 268.065429688 417.770507812 261.361328125 402.21875 254.662109375 387.078125 c 4
 218.138671875 304.5234375 178.963867188 223.14453125 143.66796875 140.057617188 c 4
 136.909179688 124.1484375 130.219726562 107.891601562 128.474609375 90.6962890625 c 4
 127.602539062 82.09765625 128.001953125 73.3203125 130.233398438 64.9716796875 c 4
 132.46484375 56.623046875 136.57421875 48.708984375 142.557617188 42.4736328125 c 4
510.01171875 434.90234375 m 4
 513.3828125 445.3046875 516.817382812 455.848632812 522.80078125 465.001953125 c 4
 525.791992188 469.579101562 529.416015625 473.775390625 533.737304688 477.125976562 c 4
 538.057617188 480.477539062 543.091796875 482.966796875 548.45703125 484.024414062 c 4
 556.063476562 485.522460938 564.1484375 484.047851562 570.943359375 480.314453125 c 4
 577.737304688 476.581054688 583.244140625 470.666015625 586.859375 463.80859375 c 4
 592.8046875 452.53125 593.596679688 439.108398438 591.551757812 426.525390625 c 4
 589.505859375 413.942382812 584.810546875 401.967773438 580.21484375 390.077148438 c 4
 534.776367188 272.524414062 496.103515625 152.48828125 457.55078125 32.5009765625 c 4
 440.237304688 -21.3828125 422.100585938 -76.8193359375 385.389648438 -119.895507812 c 4
 348.158203125 -163.583984375 293.311523438 -191.176757812 236.280273438 -197.676757812 c 4
 179.249023438 -204.176757812 120.50390625 -190.069335938 71.2021484375 -160.671875 c 4
 59.0380859375 -153.41796875 47.2265625 -145.088867188 38.4990234375 -133.935546875 c 4
 34.134765625 -128.358398438 30.5859375 -122.103515625 28.3994140625 -115.368164062 c 4
 26.2138671875 -108.6328125 25.4130859375 -101.407226562 26.4482421875 -94.4013671875 c 4
 27.67578125 -86.099609375 31.578125 -78.1201171875 37.787109375 -72.4736328125 c 4
 43.99609375 -66.8271484375 52.5439453125 -63.66796875 60.896484375 -64.4873046875 c 4
 65.541015625 -64.9423828125 70.029296875 -66.580078125 74.0537109375 -68.943359375 c 4
 78.0771484375 -71.3076171875 81.6513671875 -74.384765625 84.8408203125 -77.79296875 c 4
 91.2177734375 -84.607421875 96.0478515625 -92.689453125 101.434570312 -100.311523438 c 4
 119.749023438 -126.229492188 145.293945312 -147.342773438 174.999023438 -158.51171875 c 4
 204.704101562 -169.6796875 238.551757812 -170.498046875 268.072265625 -158.849609375 c 4
 303.21484375 -144.984375 329.920898438 -114.8203125 347.466796875 -81.36328125 c 4
 365.012695312 -47.9052734375 374.509765625 -10.9306640625 384.368164062 25.5390625 c 4
 421.620117188 163.345703125 466.002929688 299.102539062 510.01171875 434.90234375 c 4
EndSplineSet
Validated: 524325
EndChar

StartChar: C
Encoding: 67 67 24
Width: 665
VWidth: 0
Flags: HW
LayerCount: 2
UndoRedoHistory
Layer: 1
Undoes
EndUndoes
Redoes
EndRedoes
EndUndoRedoHistory
Fore
SplineSet
627.431640625 659.258789062 m 4
 632.749023438 665.146484375 636.075195312 672.709960938 637.331054688 680.543945312 c 4
 638.584960938 688.37890625 637.825195312 696.46875 635.631835938 704.09375 c 4
 631.245117188 719.34375 621.375976562 732.421875 610.572265625 744.043945312 c 4
 580.170898438 776.748046875 540.548828125 800.831054688 497.456054688 812.52734375 c 4
 454.36328125 824.223632812 407.930664062 823.461914062 365.31640625 810.127929688 c 4
 310.270507812 792.90234375 263.182617188 755.607421875 225.814453125 711.669921875 c 4
 188.446289062 667.732421875 159.899414062 617.106445312 132.271484375 566.474609375 c 4
 87.939453125 485.2265625 44.6923828125 401.133789062 30.62109375 309.654296875 c 4
 23.583984375 263.913085938 24.10546875 216.690429688 35.51171875 171.83984375 c 4
 46.9169921875 126.990234375 69.5146484375 84.580078125 102.802734375 52.431640625 c 4
 133.586914062 22.7021484375 172.780273438 2.38671875 214.049804688 -8.9443359375 c 4
 255.3203125 -20.2744140625 298.659179688 -22.8720703125 341.358398438 -20 c 4
 426.759765625 -14.2568359375 509.020507812 12.849609375 592.108398438 33.40625 c 4
 602.541015625 35.986328125 613.345703125 38.6298828125 621.83203125 45.2216796875 c 4
 626.075195312 48.517578125 629.639648438 52.7978515625 631.599609375 57.7998046875 c 4
 633.561523438 62.802734375 633.827148438 68.5498046875 631.82421875 73.53515625 c 4
 629.98828125 78.1064453125 626.3359375 81.8359375 622.004882812 84.18359375 c 4
 617.674804688 86.5322265625 612.702148438 87.5546875 607.775390625 87.5869140625 c 4
 597.924804688 87.650390625 588.499023438 83.91015625 579.311523438 80.3515625 c 4
 531.465820312 61.822265625 482.2734375 46.703125 432.137695312 35.7919921875 c 4
 385.90234375 25.7294921875 338.3515625 19.236328125 291.271484375 23.9853515625 c 4
 244.193359375 28.7353515625 197.328125 45.451171875 162.245117188 77.203125 c 4
 133.819335938 102.927734375 114.1875 137.625 103.932617188 174.56640625 c 4
 93.6787109375 211.504882812 92.5263671875 250.625 97.6513671875 288.619140625 c 4
 107.90234375 364.604492188 142.373046875 434.893554688 176.759765625 503.424804688 c 4
 212.396484375 574.447265625 249.57421875 646.759765625 307.310546875 701.354492188 c 4
 339.727539062 732.0078125 379.577148438 756.890625 423.830078125 762.569335938 c 4
 445.95703125 765.409179688 468.860351562 763.287109375 489.646484375 755.189453125 c 4
 510.43359375 747.09375 528.997070312 732.880859375 541.173828125 714.19140625 c 4
 549.819335938 700.922851562 555.155273438 685.709960938 563.881835938 672.495117188 c 4
 568.24609375 665.887695312 573.497070312 659.76953125 579.962890625 655.196289062 c 4
 586.428710938 650.624023438 594.180664062 647.662109375 602.098632812 647.674804688 c 4
 611.659179688 647.690429688 621.0234375 652.163085938 627.431640625 659.258789062 c 4
EndSplineSet
Validated: 524329
EndChar

StartChar: D
Encoding: 68 68 25
Width: 674
VWidth: 0
Flags: HW
LayerCount: 2
UndoRedoHistory
Layer: 1
Undoes
EndUndoes
Redoes
EndRedoes
EndUndoRedoHistory
Fore
SplineSet
273.584960938 596.69921875 m 4
 259.559570312 572.172851562 247.458007812 546.591796875 236.120117188 520.712890625 c 4
 192.888671875 422.028320312 160.692382812 318.909179688 121.20703125 218.666992188 c 4
 102.928710938 172.265625 82.8056640625 125.985351562 52.88671875 86.0859375 c 4
 43.8515625 74.0361328125 33.779296875 62.3017578125 28.8486328125 48.0712890625 c 4
 26.3828125 40.9560546875 25.2890625 33.2685546875 26.48828125 25.833984375 c 4
 27.6875 18.3994140625 31.2978515625 11.2421875 37.09765625 6.439453125 c 4
 42.9990234375 1.552734375 50.8896484375 -0.6494140625 58.5400390625 -0.234375 c 4
 66.19140625 0.181640625 73.5888671875 3.0908203125 79.91796875 7.4091796875 c 4
 92.578125 16.044921875 100.727539062 29.7490234375 107.911132812 43.28515625 c 4
 121.307617188 68.53125 132.7734375 94.751953125 143.778320312 121.12890625 c 4
 187.848632812 226.759765625 224.74609375 335.321289062 270.650390625 440.168945312 c 4
 289.653320312 483.57421875 310.344726562 526.577148438 338.095703125 564.983398438 c 4
 344.8125 574.280273438 352.020507812 583.448242188 356.1640625 594.143554688 c 4
 358.235351562 599.490234375 359.504882812 605.194335938 359.41796875 610.928710938 c 4
 359.331054688 616.663085938 357.844726562 622.431640625 354.745117188 627.256835938 c 4
 350.021484375 634.610351562 341.7265625 639.325195312 333.069335938 640.53125 c 4
 324.413085938 641.737304688 315.48046875 639.637695312 307.771484375 635.520507812 c 4
 300.061523438 631.403320312 293.5078125 625.3515625 287.986328125 618.576171875 c 4
 282.465820312 611.799804688 277.924804688 604.287109375 273.584960938 596.69921875 c 4
166.778320312 732.00390625 m 4
 169.458984375 725.826171875 175.014648438 721.123046875 181.330078125 718.784179688 c 4
 187.645507812 716.4453125 194.649414062 716.337890625 201.240234375 717.725585938 c 4
 214.419921875 720.501953125 225.612304688 728.838867188 236.731445312 736.439453125 c 4
 277.8203125 764.52734375 324.876953125 785.450195312 374.471679688 789.638671875 c 4
 424.06640625 793.827148438 476.326171875 779.893554688 512.764648438 745.989257812 c 4
 544.291992188 716.655273438 561.920898438 674.750976562 569.072265625 632.28515625 c 4
 576.223632812 589.819335938 573.737304688 546.369140625 570.341796875 503.439453125 c 4
 563.758789062 420.204101562 553.500976562 335.916015625 521.077148438 258.97265625 c 4
 504.865234375 220.500976562 483.115234375 184.15234375 455.010742188 153.28125 c 4
 426.90625 122.41015625 392.317382812 97.109375 353.436523438 81.90625 c 4
 310.978515625 65.3056640625 264.73828125 61.0732421875 219.165039062 59.9423828125 c 4
 173.590820312 58.8115234375 127.828125 60.6044921875 82.5439453125 55.349609375 c 4
 71.2412109375 54.0380859375 59.5498046875 52.1220703125 50.17578125 45.6728515625 c 4
 45.48828125 42.4482421875 41.4970703125 38.0927734375 39.19140625 32.8916015625 c 4
 36.884765625 27.6904296875 36.357421875 21.6201171875 38.2451171875 16.25390625 c 4
 39.71875 12.064453125 42.5986328125 8.4375 46.13671875 5.75390625 c 4
 49.6748046875 3.0693359375 53.8505859375 1.296875 58.1669921875 0.2490234375 c 4
 66.798828125 -1.845703125 75.828125 -1.0908203125 84.69140625 -0.50390625 c 4
 178.90234375 5.7236328125 276.403320312 -8.2822265625 365.885742188 21.8408203125 c 4
 458.352539062 52.9677734375 530.936523438 129.07421875 574.485351562 216.380859375 c 4
 618.034179688 303.6875 635.3359375 401.762695312 643.584960938 498.978515625 c 4
 647.915039062 550.008789062 649.861328125 601.7578125 640.5703125 652.122070312 c 4
 631.279296875 702.486328125 609.947265625 751.799804688 573.225585938 787.499023438 c 4
 548.887695312 811.158203125 518.418945312 828.184570312 485.9453125 838.061523438 c 4
 453.47265625 847.939453125 419.037109375 850.779296875 385.2109375 847.975585938 c 4
 317.55859375 842.3671875 253.439453125 814.611328125 195.379882812 779.435546875 c 4
 186.721679688 774.190429688 177.969726562 768.594726562 171.865234375 760.520507812 c 4
 168.8125 756.482421875 166.477539062 751.849609375 165.454101562 746.892578125 c 4
 164.430664062 741.935546875 164.762695312 736.646484375 166.778320312 732.00390625 c 4
EndSplineSet
Validated: 524325
EndChar

StartChar: E
Encoding: 69 69 26
Width: 637
VWidth: 0
Flags: HW
LayerCount: 2
UndoRedoHistory
Layer: 1
Undoes
EndUndoes
Redoes
EndRedoes
EndUndoRedoHistory
Fore
SplineSet
443.248046875 818.995117188 m 2
 443.244140625 818.995117188 l 2
 455.146484375 819.075195312 467.036132812 818.126953125 478.79296875 816.095703125 c 0
 513.393554688 810.119140625 546.236328125 795.055664062 574.143554688 773.74609375 c 0
 586.396484375 764.389648438 597.98046875 753.498046875 604.64453125 739.595703125 c 0
 607.975585938 732.643554688 610.028320312 725.002929688 610.044921875 717.294921875 c 0
 610.063476562 709.586914062 608.022460938 701.791015625 603.79296875 695.346679688 c 0
 600.108398438 689.727539062 594.767578125 685.1953125 588.59375 682.545898438 c 0
 582.418945312 679.895507812 575.4140625 679.13671875 568.844726562 680.545898438 c 0
 563.346679688 681.723632812 558.221679688 684.34765625 553.744140625 687.74609375 c 0
 549.265625 691.143554688 545.418945312 695.327148438 541.943359375 699.74609375 c 0
 534.995117188 708.583007812 529.514648438 718.520507812 522.244140625 727.095703125 c 0
 505.409179688 746.952148438 479.540039062 758.114257812 453.543945312 759.495117188 c 0
 427.548828125 760.876953125 401.567382812 753.034179688 379.09375 739.895507812 c 0
 339.0234375 716.471679688 310.02734375 676.796875 293.844726562 633.294921875 c 0
 283.92578125 606.634765625 278.43359375 577.997070312 280.744140625 549.645507812 c 0
 283.053710938 521.29296875 293.5 493.221679688 312.494140625 472.044921875 c 0
 313.833007812 470.552734375 315.236328125 469.114257812 316.64453125 467.6953125 c 1
 337.631835938 470.208007812 358.836914062 470.728515625 379.993164062 468.946289062 c 0
 393.15625 467.836914062 406.797851562 465.690429688 417.744140625 458.294921875 c 0
 423.216796875 454.599609375 427.875 449.591796875 430.64453125 443.595703125 c 0
 433.4140625 437.599609375 434.168945312 430.59765625 432.193359375 424.294921875 c 0
 430.040039062 417.426757812 424.799804688 411.829101562 418.64453125 408.095703125 c 0
 412.489257812 404.362304688 405.456054688 402.346679688 398.393554688 400.946289062 c 0
 368.274414062 394.970703125 336.301757812 399.805664062 308.744140625 413.346679688 c 0
 305.048828125 415.16015625 301.473632812 417.186523438 297.943359375 419.294921875 c 1
 290.3671875 416.141601562 282.825195312 412.883789062 275.393554688 409.395507812 c 0
 210.2109375 378.807617188 149.288085938 332.0234375 119.444335938 266.495117188 c 0
 104.521484375 233.731445312 97.947265625 196.86328125 103.193359375 161.245117188 c 0
 108.44140625 125.62890625 125.887695312 91.48046875 153.34375 68.1953125 c 0
 172.900390625 51.6103515625 196.938476562 40.8486328125 221.844726562 34.74609375 c 0
 246.75 28.642578125 272.5546875 27.072265625 298.193359375 27.4951171875 c 0
 383.908203125 28.912109375 467.903320312 52.287109375 548.09375 82.595703125 c 0
 557.263671875 86.0615234375 566.641601562 89.6953125 576.444335938 89.595703125 c 0
 581.345703125 89.546875 586.314453125 88.5439453125 590.64453125 86.2451171875 c 0
 594.97265625 83.9462890625 598.649414062 80.294921875 600.59375 75.794921875 c 0
 602.873046875 70.5302734375 602.626953125 64.37109375 600.497070312 59.044921875 c 0
 598.3671875 53.7197265625 594.4765625 49.1845703125 589.84765625 45.794921875 c 0
 580.591796875 39.0166015625 568.927734375 36.6953125 557.697265625 34.3466796875 c 0
 494.204101562 21.064453125 432.030273438 1.607421875 368.1484375 -9.6533203125 c 0
 304.265625 -20.9169921875 237.326171875 -23.6806640625 175.548828125 -3.904296875 c 0
 144.647460938 5.9873046875 115.436523438 21.50390625 90.998046875 42.845703125 c 0
 66.5595703125 64.1865234375 47.0087890625 91.455078125 36.1982421875 122.044921875 c 0
 22.185546875 161.6953125 23.2509765625 205.864257812 35.4970703125 246.095703125 c 0
 47.7451171875 286.325195312 70.76953125 322.779296875 98.9482421875 353.995117188 c 0
 141.220703125 400.826171875 196.5 436.03515625 256.59765625 454.794921875 c 1
 251.258789062 461.197265625 246.39453125 467.9921875 242.047851562 475.095703125 c 0
 226.020507812 501.28515625 217 531.568359375 214.797851562 562.1953125 c 0
 212.596679688 592.821289062 217.095703125 623.779296875 226.697265625 652.946289062 c 0
 243.754882812 704.7578125 277.506835938 751.3203125 322.84765625 781.645507812 c 0
 358.270507812 805.3359375 400.735351562 818.70703125 443.248046875 818.995117188 c 2
EndSplineSet
Validated: 524321
EndChar

StartChar: P
Encoding: 80 80 27
Width: 668
VWidth: 0
Flags: HW
LayerCount: 2
UndoRedoHistory
Layer: 1
Undoes
EndUndoes
Redoes
EndRedoes
EndUndoRedoHistory
Fore
SplineSet
273.5859375 580.77734375 m 4
 277.924804688 588.365234375 282.466796875 595.876953125 287.987304688 602.653320312 c 4
 293.5078125 609.4296875 300.061523438 615.48046875 307.771484375 619.59765625 c 4
 315.481445312 623.71484375 324.413085938 625.814453125 333.069335938 624.608398438 c 4
 341.7265625 623.40234375 350.020507812 618.688476562 354.745117188 611.334960938 c 4
 357.844726562 606.509765625 359.331054688 600.741210938 359.41796875 595.006835938 c 4
 359.504882812 589.2734375 358.235351562 583.569335938 356.1640625 578.221679688 c 4
 352.021484375 567.526367188 344.813476562 558.359375 338.096679688 549.0625 c 4
 310.346679688 510.655273438 289.655273438 467.65234375 270.65234375 424.24609375 c 4
 224.748046875 319.3984375 187.850585938 210.836914062 143.778320312 105.20703125 c 4
 132.7734375 78.830078125 121.307617188 52.6103515625 107.911132812 27.3642578125 c 4
 100.727539062 13.828125 92.578125 0.123046875 79.9189453125 -8.5126953125 c 4
 73.58984375 -12.8310546875 66.1923828125 -15.7412109375 58.541015625 -16.15625 c 4
 50.8896484375 -16.572265625 43 -14.3701171875 37.0986328125 -9.4833984375 c 4
 31.2978515625 -4.6806640625 27.6875 2.4765625 26.48828125 9.9111328125 c 4
 25.2890625 17.345703125 26.3828125 25.033203125 28.8486328125 32.1484375 c 4
 33.779296875 46.3798828125 43.8515625 58.1142578125 52.88671875 70.1630859375 c 4
 82.806640625 110.0625 102.9296875 156.342773438 121.20703125 202.743164062 c 4
 160.693359375 302.986328125 192.888671875 406.10546875 236.12109375 504.791015625 c 4
 247.458007812 530.669921875 259.560546875 556.250976562 273.5859375 580.77734375 c 4
148.953125 671.137695312 m 4
 145.919921875 665.682617188 143.061523438 659.977539062 142.168945312 653.80078125 c 4
 141.72265625 650.711914062 141.783203125 647.530273438 142.559570312 644.506835938 c 4
 143.3359375 641.484375 144.846679688 638.625 147.059570312 636.42578125 c 4
 150.5390625 632.967773438 155.606445312 631.341796875 160.506835938 631.5625 c 4
 165.407226562 631.783203125 170.129882812 633.73046875 174.135742188 636.561523438 c 4
 182.1484375 642.221679688 187.213867188 651.032226562 192.645507812 659.201171875 c 4
 221.224609375 702.184570312 266.474609375 733.370117188 316.362304688 746.6171875 c 4
 370.84765625 761.0859375 431.991210938 753.686523438 478.319335938 721.56640625 c 4
 504.04296875 703.731445312 524.642578125 678.893554688 538.733398438 650.943359375 c 4
 552.825195312 622.993164062 560.5078125 591.999023438 562.583007812 560.766601562 c 4
 566.139648438 507.243164062 552.657226562 451.890625 520.64453125 408.84765625 c 4
 504.637695312 387.327148438 484.171875 369.051757812 460.654296875 356.15625 c 4
 437.13671875 343.260742188 410.569335938 335.80859375 383.75390625 335.255859375 c 4
 373.774414062 335.049804688 363.471679688 335.735351562 354.127929688 332.223632812 c 4
 349.456054688 330.467773438 345.108398438 327.624023438 342.102539062 323.639648438 c 4
 339.096679688 319.655273438 337.540039062 314.466796875 338.4453125 309.55859375 c 4
 339.06640625 306.194335938 340.806640625 303.08203125 343.171875 300.610351562 c 4
 345.536132812 298.138671875 348.506835938 296.288085938 351.681640625 295.013671875 c 4
 358.03125 292.462890625 365.041992188 292.196289062 371.883789062 292.219726562 c 4
 429.56640625 292.413085938 487.084960938 311.405273438 533.346679688 345.860351562 c 4
 579.607421875 380.31640625 614.321289062 430.088867188 630.357421875 485.498046875 c 4
 643.944335938 532.443359375 644.138671875 583.30078125 630.122070312 630.120117188 c 4
 616.10546875 676.939453125 587.8203125 719.505859375 549.572265625 749.9296875 c 4
 491.813476562 795.873046875 413.333007812 812.174804688 340.504882812 800.219726562 c 4
 301.19921875 793.767578125 263.078125 779.479492188 229.833984375 757.538085938 c 4
 196.590820312 735.59765625 168.310546875 705.94921875 148.953125 671.137695312 c 4
EndSplineSet
Validated: 524329
EndChar

StartChar: R
Encoding: 82 82 29
Width: 696
VWidth: 0
Flags: HW
LayerCount: 2
UndoRedoHistory
Layer: 1
Undoes
EndUndoes
Redoes
EndRedoes
EndUndoRedoHistory
Fore
SplineSet
273.584960938 569.762695312 m 4
 277.923828125 577.349609375 282.465820312 584.862304688 287.986328125 591.638671875 c 4
 293.506835938 598.415039062 300.060546875 604.465820312 307.770507812 608.583007812 c 4
 315.48046875 612.701171875 324.413085938 614.799804688 333.0703125 613.59375 c 4
 341.7265625 612.387695312 350.021484375 607.672851562 354.745117188 600.318359375 c 4
 357.844726562 595.493164062 359.331054688 589.724609375 359.41796875 583.991210938 c 4
 359.504882812 578.256835938 358.234375 572.552734375 356.163085938 567.206054688 c 4
 352.020507812 556.510742188 344.8125 547.342773438 338.095703125 538.046875 c 4
 310.344726562 499.639648438 289.654296875 456.635742188 270.650390625 413.23046875 c 4
 224.747070312 308.383789062 187.84765625 199.823242188 143.77734375 94.1923828125 c 4
 132.772460938 67.81640625 121.306640625 41.5947265625 107.91015625 16.349609375 c 4
 100.7265625 2.8134765625 92.5771484375 -10.890625 79.91796875 -19.52734375 c 4
 73.5888671875 -23.8447265625 66.19140625 -26.7548828125 58.541015625 -27.169921875 c 4
 50.8896484375 -27.5859375 43 -25.3837890625 37.0986328125 -20.4970703125 c 4
 31.2978515625 -15.6943359375 27.6875 -8.537109375 26.48828125 -1.1025390625 c 4
 25.2890625 6.33203125 26.3828125 14.01953125 28.8486328125 21.134765625 c 4
 33.7802734375 35.3662109375 43.8515625 47.099609375 52.8876953125 59.1494140625 c 4
 82.806640625 99.0478515625 102.9296875 145.328125 121.20703125 191.728515625 c 4
 160.694335938 291.970703125 192.891601562 395.088867188 236.12109375 493.774414062 c 4
 247.458007812 519.654296875 259.559570312 545.235351562 273.584960938 569.762695312 c 4
206.354492188 706.786132812 m 4
 203.106445312 701.399414062 200.126953125 695.676757812 199.233398438 689.44921875 c 4
 198.787109375 686.3359375 198.879882812 683.125 199.716796875 680.092773438 c 4
 200.553710938 677.060546875 202.155273438 674.213867188 204.459960938 672.07421875 c 4
 208.00390625 668.78515625 213.049804688 667.362304688 217.872070312 667.723632812 c 4
 222.693359375 668.0859375 227.2890625 670.114257812 231.20703125 672.948242188 c 4
 239.04296875 678.616210938 244.134765625 687.196289062 250.045898438 694.850585938 c 4
 261.7578125 710.015625 277.24609375 722.03125 294.1796875 730.998046875 c 4
 311.112304688 739.96484375 329.490234375 745.967773438 348.162109375 750.266601562 c 4
 377.868164062 757.10546875 408.750976562 759.703125 438.95703125 755.6015625 c 4
 469.163085938 751.500976562 498.693359375 740.516601562 522.918945312 722.014648438 c 4
 548.161132812 702.736328125 567.104492188 675.594726562 577.581054688 645.610351562 c 4
 588.057617188 615.625976562 590.172851562 582.91796875 584.783203125 551.616210938 c 4
 576.375976562 502.791992188 549.33984375 457.331054688 510.170898438 426.995117188 c 4
 471.000976562 396.659179688 420.038085938 381.842773438 370.754882812 386.90625 c 4
 358.557617188 388.16015625 346.169921875 390.5703125 334.159179688 388.110351562 c 4
 328.153320312 386.879882812 322.319335938 384.3828125 317.733398438 380.314453125 c 4
 313.1484375 376.24609375 309.897460938 370.520507812 309.4453125 364.40625 c 4
 309.04296875 358.962890625 310.874023438 353.465820312 314.080078125 349.047851562 c 4
 317.286132812 344.629882812 321.801757812 341.25390625 326.7578125 338.96484375 c 4
 336.668945312 334.385742188 347.967773438 334.109375 358.883789062 334.267578125 c 4
 418.581054688 335.1328125 478.81640625 346.952148438 531.696289062 374.668945312 c 4
 584.577148438 402.384765625 629.697265625 446.793945312 652.557617188 501.947265625 c 4
 669.965820312 543.946289062 674.006835938 591.41015625 663.69140625 635.6875 c 4
 653.375976562 679.96484375 628.715820312 720.821289062 594.171875 750.37890625 c 4
 564.357421875 775.889648438 527.654296875 792.834960938 489.331054688 801.267578125 c 4
 451.0078125 809.700195312 411.094726562 809.794921875 372.3046875 803.8671875 c 4
 339.580078125 798.8671875 307.28125 789.515625 278.232421875 773.639648438 c 4
 249.182617188 757.763671875 223.446289062 735.137695312 206.354492188 706.786132812 c 4
357.221679688 326.07421875 m 4
 372.494140625 318.47265625 384.23828125 304.975585938 392.3515625 289.967773438 c 4
 400.463867188 274.959960938 405.244140625 258.403320312 409.416992188 241.861328125 c 4
 421.78515625 192.831054688 429.323242188 142.71875 435.875976562 92.578125 c 4
 437.938476562 76.802734375 439.921875 60.9287109375 444.485351562 45.6875 c 4
 449.048828125 30.4462890625 456.370117188 15.7138671875 467.760742188 4.6064453125 c 4
 479 -6.3525390625 493.830078125 -13.3203125 509.271484375 -16.1474609375 c 4
 524.712890625 -18.9736328125 540.739257812 -17.7841796875 555.94140625 -13.8701171875 c 4
 586.345703125 -6.0400390625 612.905273438 12.1943359375 638.047851562 30.9990234375 c 4
 643.874023438 35.3564453125 649.771484375 39.875 653.846679688 45.90234375 c 4
 655.884765625 48.916015625 657.435546875 52.2900390625 658.12109375 55.8623046875 c 4
 658.806640625 59.435546875 658.6015625 63.2119140625 657.2734375 66.5986328125 c 4
 655.379882812 71.423828125 651.2578125 75.216796875 646.46484375 77.1904296875 c 4
 641.671875 79.1650390625 636.267578125 79.408203125 631.18359375 78.3974609375 c 4
 621.014648438 76.3759765625 612.469726562 69.6953125 604.618164062 62.923828125 c 4
 593.836914062 53.6240234375 583.358398438 43.6279296875 570.609375 37.28515625 c 4
 564.235351562 34.1142578125 557.3203125 31.9052734375 550.21875 31.4072265625 c 4
 543.1171875 30.9091796875 535.817382812 32.1787109375 529.567382812 35.587890625 c 4
 522.23828125 39.5849609375 516.676757812 46.3212890625 512.875976562 53.75390625 c 4
 509.075195312 61.1865234375 506.90234375 69.3359375 505.083984375 77.4833984375 c 4
 494.82421875 123.461914062 495.08984375 171.112304688 488.100585938 217.700195312 c 4
 484.606445312 240.994140625 479.255859375 264.139648438 470.080078125 285.833984375 c 4
 460.904296875 307.528320312 447.77734375 327.790039062 430.19921875 343.469726562 c 4
 410.626953125 360.928710938 386.149414062 372.189453125 360.885742188 379.235351562 c 4
 351.751953125 381.783203125 342.120117188 383.818359375 332.844726562 381.84765625 c 4
 328.20703125 380.86328125 323.739257812 378.849609375 320.192382812 375.703125 c 4
 316.646484375 372.556640625 314.0703125 368.236328125 313.38671875 363.544921875 c 4
 312.63671875 358.395507812 314.196289062 353.067382812 317.073242188 348.731445312 c 4
 319.951171875 344.395507812 324.067382812 340.989257812 328.549804688 338.34765625 c 4
 337.516601562 333.063476562 347.905273438 330.711914062 357.221679688 326.07421875 c 4
EndSplineSet
Validated: 524325
EndChar

StartChar: F
Encoding: 70 70 30
Width: 657
VWidth: 0
Flags: HW
LayerCount: 2
UndoRedoHistory
Layer: 1
Undoes
EndUndoes
Redoes
EndRedoes
EndUndoRedoHistory
Fore
SplineSet
278.034179688 616.55078125 m 4
 281.633789062 630.216796875 284.9765625 644.290039062 292.732421875 656.104492188 c 4
 296.611328125 662.010742188 301.59375 667.271484375 307.643554688 670.923828125 c 4
 313.693359375 674.575195312 320.849609375 676.55078125 327.884765625 675.889648438 c 4
 335.772460938 675.147460938 343.174804688 671.099609375 348.59375 665.321289062 c 4
 354.01171875 659.54296875 357.518554688 652.126953125 359.26953125 644.400390625 c 4
 362.771484375 628.94921875 359.4453125 612.825195312 355.403320312 597.505859375 c 4
 328.178710938 494.323242188 269.309570312 402.916015625 221.982421875 307.270507812 c 4
 179.25390625 220.91796875 145.659179688 130.366210938 113.9375 39.392578125 c 4
 109.41015625 26.40625 104.779296875 13.146484375 96.333984375 2.2919921875 c 4
 92.1103515625 -3.134765625 86.943359375 -7.8935546875 80.90234375 -11.1796875 c 4
 74.861328125 -14.46484375 67.919921875 -16.2314453125 61.064453125 -15.689453125 c 4
 51.2119140625 -14.9111328125 42.052734375 -9.3271484375 35.984375 -1.5263671875 c 4
 29.9150390625 6.2734375 26.7880859375 16.1142578125 26.138671875 25.9755859375 c 4
 24.8388671875 45.69921875 32.9189453125 64.7001953125 40.9619140625 82.755859375 c 4
 76.42578125 162.372070312 114.376953125 240.856445312 153.131835938 318.923828125 c 4
 201.061523438 415.473632812 250.578125 512.313476562 278.034179688 616.55078125 c 4
74.1767578125 636.384765625 m 4
 66.193359375 638.786132812 59.259765625 644.2265625 54.556640625 651.109375 c 4
 49.853515625 657.9921875 47.32421875 666.25 46.7939453125 674.569335938 c 4
 45.732421875 691.208007812 52.45703125 707.485351562 61.56640625 721.44921875 c 4
 75.921875 743.456054688 96.3828125 761.19140625 119.447265625 773.77734375 c 4
 142.51171875 786.364257812 168.129882812 793.916992188 194.15234375 797.555664062 c 4
 254.703125 806.021484375 315.923828125 793.619140625 376.541992188 785.650390625 c 4
 437.161132812 777.680664062 501.329101562 774.63671875 556.904296875 800.124023438 c 4
 565.846679688 804.224609375 574.505859375 809.043945312 583.860351562 812.09375 c 4
 593.213867188 815.143554688 603.561523438 816.3203125 612.826171875 813.008789062 c 4
 617.635742188 811.2890625 622.05078125 808.357421875 625.2578125 804.380859375 c 4
 628.46484375 800.405273438 630.415039062 795.369140625 630.408203125 790.26171875 c 4
 630.400390625 784.428710938 627.880859375 778.8046875 624.288085938 774.209960938 c 4
 620.694335938 769.615234375 616.072265625 765.939453125 611.3359375 762.534179688 c 4
 577.54296875 738.240234375 536.252929688 725.963867188 494.864257812 721.58984375 c 4
 453.474609375 717.21484375 411.6796875 720.345703125 370.264648438 724.465820312 c 4
 328.401367188 728.629882812 286.163085938 733.803710938 244.411132812 728.65234375 c 4
 223.534179688 726.076171875 202.877929688 720.883789062 183.813476562 711.994140625 c 4
 164.75 703.10546875 147.295898438 690.436523438 133.97265625 674.158203125 c 4
 128.723632812 667.744140625 124.135742188 660.807617188 118.833984375 654.436523438 c 4
 113.533203125 648.064453125 107.390625 642.1796875 99.912109375 638.60546875 c 4
 91.9638671875 634.806640625 82.6123046875 633.846679688 74.1767578125 636.384765625 c 4
412.203125 420.918945312 m 4
 419.313476562 422.724609375 426.587890625 424.599609375 433.890625 423.905273438 c 4
 437.541992188 423.55859375 441.163085938 422.55078125 444.318359375 420.680664062 c 4
 447.473632812 418.810546875 450.14453125 416.045898438 451.627929688 412.69140625 c 4
 453.215820312 409.099609375 453.379882812 404.958007812 452.400390625 401.155273438 c 4
 451.420898438 397.352539062 449.344726562 393.881835938 446.700195312 390.978515625 c 4
 441.412109375 385.172851562 434.083984375 381.706054688 426.861328125 378.623046875 c 4
 363.311523438 351.497070312 293.403320312 343.234375 224.41796875 339.321289062 c 4
 212.715820312 338.658203125 200.958007812 338.111328125 189.291992188 339.239257812 c 4
 177.625 340.366210938 165.98046875 343.23046875 155.782226562 349.008789062 c 4
 146.73828125 354.133789062 138.849609375 361.703125 134.635742188 371.206054688 c 4
 132.529296875 375.958007812 131.366210938 381.146484375 131.432617188 386.34375 c 4
 131.499023438 391.541015625 132.809570312 396.741210938 135.377929688 401.259765625 c 4
 138.676757812 407.063476562 143.975585938 411.607421875 149.984375 414.518554688 c 4
 155.9921875 417.4296875 162.685546875 418.767578125 169.358398438 418.989257812 c 4
 182.704101562 419.431640625 195.755859375 415.545898438 208.698242188 412.259765625 c 4
 226.14453125 407.829101562 243.880859375 404.424804688 261.811523438 402.840820312 c 4
 312.353515625 398.374023438 363.02734375 408.423828125 412.203125 420.918945312 c 4
EndSplineSet
Validated: 524325
EndChar

StartChar: T
Encoding: 84 84 31
Width: 628
VWidth: 0
Flags: HW
LayerCount: 2
UndoRedoHistory
Layer: 1
Undoes
EndUndoes
Redoes
EndRedoes
EndUndoRedoHistory
Fore
SplineSet
354.216796875 614.474609375 m 4
 357.81640625 628.141601562 361.159179688 642.21484375 368.916015625 654.028320312 c 4
 372.794921875 659.935546875 377.77734375 665.197265625 383.827148438 668.848632812 c 4
 389.876953125 672.5 397.034179688 674.4765625 404.069335938 673.814453125 c 4
 411.95703125 673.072265625 419.359375 669.024414062 424.778320312 663.24609375 c 4
 430.196289062 657.466796875 433.703125 650.05078125 435.454101562 642.325195312 c 4
 438.956054688 626.874023438 435.629882812 610.749023438 431.587890625 595.430664062 c 4
 404.364257812 492.248046875 345.4921875 400.841796875 298.166015625 305.196289062 c 4
 255.4375 218.842773438 221.845703125 128.290039062 190.123046875 37.31640625 c 4
 185.594726562 24.330078125 180.963867188 11.0712890625 172.517578125 0.216796875 c 4
 168.294921875 -5.2099609375 163.127929688 -9.96875 157.086914062 -13.25390625 c 4
 151.045898438 -16.5400390625 144.104492188 -18.3056640625 137.249023438 -17.763671875 c 4
 127.396484375 -16.9853515625 118.23828125 -11.4013671875 112.169921875 -3.6005859375 c 4
 106.100585938 4.19921875 102.973632812 14.0390625 102.32421875 23.9013671875 c 4
 101.024414062 43.6240234375 109.104492188 62.6240234375 117.146484375 80.6796875 c 4
 152.609375 160.295898438 190.560546875 238.780273438 229.314453125 316.84765625 c 4
 277.244140625 413.397460938 326.760742188 510.237304688 354.216796875 614.474609375 c 4
51.6044921875 649.622070312 m 4
 44.078125 651.744140625 37.5029296875 656.788085938 33.0859375 663.240234375 c 4
 28.6689453125 669.692382812 26.3603515625 677.482421875 26.0400390625 685.294921875 c 4
 25.3994140625 700.919921875 32.5078125 716.012695312 42.1962890625 728.287109375 c 4
 57.447265625 747.609375 79.1044921875 761.251953125 102.282226562 769.541015625 c 4
 125.4609375 777.830078125 150.18359375 781.025390625 174.780273438 781.993164062 c 4
 233.545898438 784.306640625 291.991210938 774.231445312 350.565429688 768.95703125 c 4
 409.138671875 763.682617188 469.825195312 763.491210938 524.732421875 784.561523438 c 4
 534.301757812 788.233398438 543.67578125 792.544921875 553.620117188 795.029296875 c 4
 563.564453125 797.513671875 574.340820312 798.059570312 583.85546875 794.24609375 c 4
 588.565429688 792.358398438 592.889648438 789.401367188 596.0859375 785.459960938 c 4
 599.282226562 781.518554688 601.305664062 776.571289062 601.4375 771.498046875 c 4
 601.6171875 764.616210938 598.337890625 757.983398438 593.713867188 752.883789062 c 4
 589.08984375 747.783203125 583.196289062 744.020507812 577.237304688 740.572265625 c 4
 525.108398438 710.403320312 463.623046875 700.197265625 403.409179688 698.807617188 c 4
 343.1953125 697.41796875 283.106445312 704.28125 222.893554688 705.705078125 c 4
 206.443359375 706.094726562 189.909179688 706.072265625 173.635742188 703.631835938 c 4
 157.36328125 701.19140625 141.274414062 696.244140625 127.401367188 687.396484375 c 4
 118.7421875 681.874023438 111.091796875 674.939453125 103.16796875 668.405273438 c 4
 95.2451171875 661.87109375 86.8828125 655.638671875 77.33984375 651.842773438 c 4
 69.1943359375 648.6015625 60.0419921875 647.244140625 51.6044921875 649.622070312 c 4
EndSplineSet
Validated: 524321
EndChar

StartChar: M
Encoding: 77 77 32
Width: 727
VWidth: 0
Flags: HW
LayerCount: 2
UndoRedoHistory
Layer: 1
Undoes
EndUndoes
Redoes
EndRedoes
EndUndoRedoHistory
Fore
SplineSet
570.64453125 -0.7900390625 m 0
 574.403320312 7.330078125 574.715820312 16.681640625 573.373046875 25.5283203125 c 0
 572.03125 34.375 569.129882812 42.8955078125 566.665039062 51.4970703125 c 0
 552.795898438 99.890625 552.701171875 151.479492188 560.619140625 201.194335938 c 0
 568.536132812 250.91015625 584.252929688 299.044921875 601.658203125 346.282226562 c 0
 643.563476562 460.009765625 696.359375 573.350585938 699.615234375 694.509765625 c 0
 700.201171875 716.314453125 699.02734375 738.73828125 690.349609375 758.75 c 0
 686.010742188 768.755859375 679.791992188 778.02734375 671.655273438 785.290039062 c 0
 663.51953125 792.552734375 653.41796875 797.744140625 642.637695312 799.40234375 c 0
 634.036132812 800.724609375 625.159179688 799.790039062 616.842773438 797.2265625 c 0
 608.525390625 794.663085938 600.751953125 790.501953125 593.666992188 785.448242188 c 0
 579.498046875 775.33984375 568.176757812 761.828125 556.934570312 748.540039062 c 0
 522.225585938 707.516601562 486.576171875 666.985351562 457.680664062 621.678710938 c 0
 437.993164062 590.80859375 421.610351562 557.978515625 404.078125 525.833984375 c 0
 380.7265625 483.020507812 354.962890625 440.533203125 343.849609375 393.048828125 c 0
 341.686523438 383.80859375 340.09765625 374.162109375 342.012695312 364.8671875 c 0
 342.969726562 360.219726562 344.819335938 355.71875 347.698242188 351.946289062 c 0
 350.576171875 348.173828125 354.512695312 345.155273438 359.0234375 343.680664062 c 0
 363.896484375 342.087890625 369.284179688 342.352539062 374.134765625 344.015625 c 0
 378.985351562 345.677734375 383.3125 348.685546875 386.891601562 352.356445312 c 0
 394.049804688 359.698242188 398.150390625 369.421875 401.877929688 378.974609375 c 0
 432.241210938 456.7890625 448.462890625 539.921875 451.547851562 623.392578125 c 0
 453.1484375 666.693359375 450.858398438 711.69921875 431.2734375 750.350585938 c 0
 425.88671875 760.98046875 419.177734375 771.064453125 410.456054688 779.184570312 c 0
 401.734375 787.303710938 390.887695312 793.392578125 379.125976562 795.302734375 c 0
 370.368164062 796.725585938 361.302734375 795.8046875 352.833007812 793.161132812 c 0
 344.36328125 790.517578125 336.474609375 786.181640625 329.362304688 780.877929688 c 0
 315.135742188 770.270507812 304.131835938 755.994140625 293.672851562 741.658203125 c 0
 186.388671875 594.599609375 117.48828125 422.654296875 68.9404296875 247.21484375 c 0
 50.2001953125 179.494140625 34.2939453125 110.76171875 27.150390625 40.8603515625 c 0
 25.72265625 26.89453125 24.724609375 12.318359375 29.853515625 -0.7490234375 c 0
 32.41796875 -7.283203125 36.5478515625 -13.2958984375 42.1796875 -17.4853515625 c 0
 47.810546875 -21.6748046875 55.001953125 -23.9267578125 61.9609375 -23.013671875 c 0
 67.34375 -22.30859375 72.404296875 -19.755859375 76.4775390625 -16.1669921875 c 0
 80.55078125 -12.578125 83.669921875 -7.9853515625 85.92578125 -3.046875 c 0
 90.4365234375 6.8291015625 91.51953125 17.8701171875 92.6474609375 28.669921875 c 0
 111.336914062 207.737304688 159.029296875 384.02734375 236.2421875 546.669921875 c 0
 261.038085938 598.901367188 288.868164062 649.74609375 320.706054688 698.008789062 c 0
 324.791992188 704.203125 329.029296875 710.44921875 334.774414062 715.14453125 c 0
 337.646484375 717.4921875 340.884765625 719.426757812 344.403320312 720.604492188 c 0
 347.921875 721.782226562 351.727539062 722.184570312 355.377929688 721.520507812 c 0
 359.359375 720.796875 363.041015625 718.83203125 366.203125 716.306640625 c 0
 369.364257812 713.782226562 372.041015625 710.705078125 374.538085938 707.520507812 c 0
 389.892578125 687.940429688 398.880859375 663.877929688 402.905273438 639.323242188 c 0
 406.928710938 614.767578125 406.178710938 589.646484375 403.530273438 564.905273438 c 0
 398.234375 515.422851562 385.388671875 466.345703125 388.168945312 416.658203125 c 0
 388.374023438 413.002929688 388.653320312 409.256835938 387.609375 405.748046875 c 0
 387.086914062 403.993164062 386.2265625 402.3203125 384.971679688 400.98828125 c 0
 383.716796875 399.655273438 382.05078125 398.678710938 380.2421875 398.3984375 c 0
 378.768554688 398.170898438 377.234375 398.411132812 375.875976562 399.02734375 c 0
 374.518554688 399.643554688 373.337890625 400.62890625 372.442382812 401.821289062 c 0
 370.65234375 404.206054688 370.05078125 407.350585938 370.412109375 410.311523438 c 0
 370.7734375 413.271484375 372.030273438 416.064453125 373.64453125 418.572265625 c 0
 375.2578125 421.080078125 377.228515625 423.334960938 379.166015625 425.6015625 c 0
 430.255859375 485.366210938 462.90625 558.533203125 508.658203125 622.475585938 c 0
 532.858398438 656.297851562 560.649414062 687.423828125 589.86328125 717.022460938 c 0
 593.34375 720.549804688 596.911132812 724.10546875 601.265625 726.469726562 c 0
 603.442382812 727.65234375 605.805664062 728.521484375 608.258789062 728.864257812 c 0
 610.712890625 729.206054688 613.260742188 729.006835938 615.577148438 728.129882812 c 0
 617.837890625 727.2734375 619.833007812 725.791015625 621.459960938 724.001953125 c 0
 623.086914062 722.213867188 624.357421875 720.124023438 625.387695312 717.936523438 c 0
 628.198242188 711.970703125 629.236328125 705.2890625 629.247070312 698.694335938 c 0
 629.2578125 692.098632812 628.278320312 685.545898438 627.219726562 679.036132812 c 0
 614.028320312 597.8984375 588.305664062 519.357421875 560.6171875 441.958007812 c 0
 525.73828125 344.459960938 487.201171875 246.497070312 478.877929688 143.284179688 c 0
 475.275390625 98.6103515625 477.896484375 51.74609375 499.048828125 12.234375 c 0
 502.993164062 4.8671875 507.602539062 -2.240234375 513.625 -8.033203125 c 0
 519.647460938 -13.826171875 527.192382812 -18.2607421875 535.446289062 -19.56640625 c 0
 542.495117188 -20.6806640625 549.896484375 -19.4375 556.193359375 -16.0791015625 c 0
 562.490234375 -12.720703125 567.646484375 -7.2666015625 570.64453125 -0.7900390625 c 0
404.422851562 413.872070312 m 0
 404.422851562 413.892578125 404.422851562 413.924804688 404.422851562 413.9453125 c 0
 404.422851562 435.625976562 394.1171875 453.22265625 381.41796875 453.22265625 c 0
 368.71875 453.22265625 358.413085938 435.625976562 358.413085938 413.9453125 c 0
 358.413085938 413.924804688 358.413085938 413.892578125 358.413085938 413.872070312 c 0
 358.413085938 413.852539062 358.413085938 413.8203125 358.413085938 413.799804688 c 0
 358.413085938 392.119140625 368.71875 374.522460938 381.41796875 374.522460938 c 0
 394.1171875 374.522460938 404.422851562 392.119140625 404.422851562 413.799804688 c 0
 404.422851562 413.8203125 404.422851562 413.852539062 404.422851562 413.872070312 c 0
EndSplineSet
Validated: 524325
EndChar

StartChar: N
Encoding: 78 78 33
Width: 685
VWidth: 0
Flags: HW
LayerCount: 2
UndoRedoHistory
Layer: 1
Undoes
EndUndoes
Redoes
EndRedoes
EndUndoRedoHistory
Fore
SplineSet
296.567382812 774.450195312 m 4
 300.505859375 783.864257812 304.639648438 793.440429688 311.497070312 800.998046875 c 4
 314.924804688 804.77734375 319.022460938 808.000976562 323.680664062 810.08203125 c 4
 328.338867188 812.1640625 333.576171875 813.067382812 338.616210938 812.275390625 c 4
 342.734375 811.627929688 346.65234375 809.861328125 349.954101562 807.31640625 c 4
 353.255859375 804.772460938 355.944335938 801.463867188 357.891601562 797.779296875 c 4
 361.786132812 790.408203125 362.6484375 781.682617188 361.379882812 773.443359375 c 4
 358.84375 756.96484375 348.500976562 742.956054688 339.640625 728.83203125 c 4
 318.345703125 694.885742188 304.344726562 656.9765625 290.319335938 619.438476562 c 4
 232.4765625 464.625976562 171.603515625 310.693359375 125.317382812 152.041992188 c 4
 116.682617188 122.4453125 108.557617188 92.6884765625 101.666992188 62.6376953125 c 4
 98.0634765625 46.9248046875 94.5205078125 30.525390625 84.55078125 17.8583984375 c 4
 79.5654296875 11.5244140625 72.97265625 6.3046875 65.3212890625 3.76953125 c 4
 57.6708984375 1.2333984375 48.935546875 1.56640625 41.8857421875 5.474609375 c 4
 36.892578125 8.2421875 32.9150390625 12.6748046875 30.296875 17.748046875 c 4
 27.6796875 22.8212890625 26.37890625 28.5126953125 26.07421875 34.2138671875 c 4
 25.46484375 45.615234375 28.73046875 56.8310546875 32.0693359375 67.7490234375 c 4
 54.8671875 142.286132812 82.642578125 215.192382812 110.576171875 287.959960938 c 4
 150.89453125 392.989257812 191.59375 497.876953125 230.80859375 603.323242188 c 4
 252.111328125 660.603515625 272.983398438 718.0703125 296.567382812 774.450195312 c 4
587.055664062 775.141601562 m 4
 590.341796875 783.873046875 593.706054688 792.72265625 599.228515625 800.2421875 c 4
 601.990234375 804.002929688 605.28515625 807.400390625 609.141601562 810.026367188 c 4
 612.997070312 812.65234375 617.428710938 814.489257812 622.05859375 815.061523438 c 4
 626.481445312 815.607421875 631.026367188 814.987304688 635.192382812 813.405273438 c 4
 639.358398438 811.823242188 643.145507812 809.291015625 646.30078125 806.143554688 c 4
 652.610351562 799.848632812 656.278320312 791.209960938 657.504882812 782.381835938 c 4
 658.73046875 773.553710938 657.641601562 764.526367188 655.419921875 755.895507812 c 4
 653.198242188 747.263671875 649.864257812 738.96484375 646.530273438 730.69921875 c 4
 589.751953125 589.890625 530.466796875 450.010742188 479.532226562 306.984375 c 4
 449.524414062 222.719726562 422.446289062 137.447265625 394.65234375 52.4267578125 c 4
 390.959960938 41.1318359375 387.081054688 29.5244140625 379.358398438 20.4921875 c 4
 375.498046875 15.9755859375 370.686523438 12.19140625 365.16015625 10.0107421875 c 4
 359.6328125 7.8291015625 353.3671875 7.3251953125 347.701171875 9.1171875 c 4
 341.67578125 11.0234375 336.599609375 15.4482421875 333.3515625 20.8701171875 c 4
 330.103515625 26.2919921875 328.603515625 32.6513671875 328.452148438 38.9697265625 c 4
 328.150390625 51.607421875 333.0078125 63.7265625 337.712890625 75.458984375 c 4
 390.318359375 206.654296875 433.713867188 341.311523438 479.469726562 475.049804688 c 4
 513.869140625 575.596679688 549.624023438 675.68359375 587.055664062 775.141601562 c 4
369.541992188 751.166015625 m 4
 367.541992188 523.69921875 384.131835938 296.463867188 386.53515625 69 c 4
 386.696289062 53.7890625 386.62109375 37.84375 379.43359375 24.4375 c 4
 375.838867188 17.734375 370.431640625 11.869140625 363.604492188 8.5166015625 c 4
 356.77734375 5.1640625 348.486328125 4.5224609375 341.51953125 7.57421875 c 4
 337.700195312 9.2470703125 334.376953125 11.95703125 331.750976562 15.1953125 c 4
 329.125 18.4345703125 327.181640625 22.1923828125 325.791015625 26.123046875 c 4
 323.009765625 33.984375 322.431640625 42.427734375 321.901367188 50.7490234375 c 4
 306.875 286.57421875 310.666015625 523.13671875 306.599609375 759.405273438 c 4
 306.419921875 769.822265625 306.259765625 780.473632812 309.541015625 790.362304688 c 4
 311.181640625 795.305664062 313.694335938 800.004882812 317.224609375 803.834960938 c 4
 320.754882812 807.666015625 325.3359375 810.59765625 330.405273438 811.793945312 c 4
 337.19921875 813.397460938 344.548828125 811.763671875 350.4453125 808.030273438 c 4
 356.342773438 804.295898438 360.842773438 798.592773438 363.809570312 792.275390625 c 4
 369.743164062 779.638671875 369.6640625 765.125976562 369.541992188 751.166015625 c 4
EndSplineSet
Validated: 524325
EndChar

StartChar: O
Encoding: 79 79 34
Width: 650
VWidth: 0
Flags: HW
LayerCount: 2
UndoRedoHistory
Layer: 1
Undoes
EndUndoes
Redoes
EndRedoes
EndUndoRedoHistory
Fore
SplineSet
482.063476562 785.44921875 m 0
 483.598632812 789.846679688 483.299804688 794.787109375 481.598632812 799.123046875 c 0
 479.896484375 803.458984375 476.853515625 807.202148438 473.186523438 810.07421875 c 0
 465.852539062 815.819335938 456.380859375 818.0234375 447.146484375 819.249023438 c 0
 409.067382812 824.30078125 369.98828125 815.109375 335.625976562 797.94140625 c 0
 301.263671875 780.772460938 271.247070312 755.942382812 244.034179688 728.83203125 c 0
 146.728515625 631.891601562 83.1650390625 504.657226562 47.7705078125 371.944335938 c 0
 30.791015625 308.283203125 19.9208984375 241.682617188 29.6884765625 176.524414062 c 0
 34.5732421875 143.9453125 44.6689453125 111.998046875 60.9404296875 83.3544921875 c 0
 77.2119140625 54.7099609375 99.76953125 29.43359375 127.368164062 11.4453125 c 0
 165.174804688 -13.197265625 211.588867188 -23.392578125 256.590820312 -20 c 0
 301.591796875 -16.6064453125 345.124023438 -0.0654296875 382.889648438 24.6416015625 c 0
 458.418945312 74.0556640625 509.240234375 153.529296875 546.842773438 235.581054688 c 0
 592.8984375 336.077148438 622.701171875 445.204101562 623.115234375 555.75 c 0
 623.255859375 593.385742188 619.4375 632.784179688 599.055664062 664.423828125 c 0
 582.166015625 690.643554688 555.202148438 709.1328125 526.370117188 721.02734375 c 0
 520.168945312 723.584960938 513.782226562 725.888671875 507.119140625 726.665039062 c 0
 500.455078125 727.440429688 493.432617188 726.5859375 487.659179688 723.170898438 c 4
 483.78125 720.876953125 480.572265625 717.470703125 478.499023438 713.470703125 c 0
 476.42578125 709.469726562 475.4921875 704.888671875 475.818359375 700.39453125 c 0
 476.232421875 694.68359375 478.646484375 689.23046875 482.079101562 684.646484375 c 0
 485.51171875 680.0625 489.930664062 676.293945312 494.635742188 673.029296875 c 0
 504.045898438 666.500976562 514.74609375 661.821289062 523.431640625 654.35546875 c 0
 533.801757812 645.44140625 540.692382812 632.994140625 544.75 619.936523438 c 0
 548.80859375 606.87890625 550.205078125 593.149414062 550.999023438 579.499023438 c 0
 558.665039062 447.643554688 511.94140625 318.30859375 451.322265625 200.962890625 c 0
 424.893554688 149.802734375 394.5546875 98.736328125 348.928710938 63.60546875 c 0
 326.116210938 46.0400390625 299.647460938 32.8291015625 271.373046875 27.39453125 c 0
 243.098632812 21.9599609375 212.990234375 24.580078125 186.95703125 36.876953125 c 0
 164.668945312 47.4052734375 145.889648438 64.7353515625 132.221679688 85.2490234375 c 0
 118.553710938 105.76171875 109.873046875 129.374023438 105.353515625 153.60546875 c 0
 96.3134765625 202.069335938 103.674804688 252.040039062 113.809570312 300.286132812 c 0
 140.749023438 428.518554688 188.375976562 554.39453125 268.766601562 657.8671875 c 0
 290.434570312 685.754882812 314.606445312 712.091796875 343.462890625 732.452148438 c 0
 372.318359375 752.8125 406.209960938 767.010742188 441.479492188 768.83203125 c 0
 449.268554688 769.234375 457.192382812 769.052734375 464.708984375 771.13671875 c 0
 468.466796875 772.178710938 472.09765625 773.798828125 475.1796875 776.188476562 c 0
 478.26171875 778.578125 480.77734375 781.766601562 482.063476562 785.44921875 c 0
EndSplineSet
Validated: 524329
EndChar

StartChar: B
Encoding: 66 66 37
Width: 705
VWidth: 0
Flags: HW
LayerCount: 2
UndoRedoHistory
Layer: 1
Undoes
EndUndoes
Redoes
EndRedoes
EndUndoRedoHistory
Fore
SplineSet
292.380859375 603.588867188 m 4
 280.3203125 577.501953125 268.326171875 551.381835938 256.921875 525.001953125 c 4
 213.284179688 424.061523438 178.243164062 319.25 127.661132812 221.604492188 c 4
 103.631835938 175.21875 76.203125 130.669921875 47.658203125 86.91796875 c 4
 38.8173828125 73.3681640625 29.6630859375 59.392578125 26.8408203125 43.4619140625 c 4
 25.4287109375 35.4970703125 25.697265625 27.1396484375 28.3955078125 19.513671875 c 4
 31.0947265625 11.888671875 36.3388671875 5.048828125 43.416015625 1.130859375 c 4
 51.4482421875 -3.31640625 61.375 -3.7197265625 70.1259765625 -0.9404296875 c 4
 78.876953125 1.837890625 86.4921875 7.58984375 92.458984375 14.568359375 c 4
 104.392578125 28.5244140625 109.765625 46.724609375 116.361328125 63.861328125 c 4
 131.107421875 102.173828125 153.130859375 137.162109375 173.290039062 172.922851562 c 4
 221.826171875 259.026367188 259.982421875 350.53125 296.603515625 442.337890625 c 4
 314.669921875 487.62890625 332.594726562 533.447265625 359.583984375 574.05859375 c 4
 367.2109375 585.536132812 375.653320312 596.78515625 379.904296875 609.893554688 c 4
 382.030273438 616.447265625 383.052734375 623.427734375 382.23828125 630.26953125 c 4
 381.423828125 637.111328125 378.697265625 643.809570312 374.01171875 648.861328125 c 4
 367.7109375 655.65625 358.182617188 659.024414062 348.920898438 658.713867188 c 4
 339.66015625 658.403320312 330.711914062 654.646484375 323.3125 649.069335938 c 4
 308.512695312 637.915039062 300.158203125 620.41015625 292.380859375 603.588867188 c 4
265.616210938 780.830078125 m 4
 260.833984375 775.60546875 256.383789062 769.829101562 254.28125 763.065429688 c 4
 253.229492188 759.684570312 252.791992188 756.086914062 253.2421875 752.57421875 c 4
 253.692382812 749.061523438 255.052734375 745.638671875 257.321289062 742.919921875 c 4
 260.51953125 739.087890625 265.389648438 736.848632812 270.352539062 736.323242188 c 4
 275.315429688 735.797851562 280.358398438 736.884765625 284.943359375 738.85546875 c 4
 294.115234375 742.795898438 301.381835938 750.028320312 309.307617188 756.095703125 c 4
 327.625 770.118164062 349.96484375 778.139648438 372.639648438 782.383789062 c 4
 424.463867188 792.083984375 480.092773438 782.192382812 524.254882812 753.391601562 c 4
 549.205078125 737.12109375 570.415039062 715.000976562 584.993164062 689.026367188 c 4
 599.571289062 663.05078125 607.422851562 633.233398438 606.803710938 603.453125 c 4
 605.873046875 558.690429688 585.215820312 514.748046875 551.538085938 485.247070312 c 4
 517.861328125 455.745117188 471.717773438 441.05859375 427.153320312 445.366210938 c 4
 415.745117188 446.46875 404.02734375 448.7265625 393.000976562 445.599609375 c 4
 387.487304688 444.036132812 382.264648438 441.057617188 378.690429688 436.578125 c 4
 376.904296875 434.337890625 375.547851562 431.743164062 374.827148438 428.969726562 c 4
 374.106445312 426.196289062 374.030273438 423.24609375 374.704101562 420.4609375 c 4
 375.5 417.171875 377.328125 414.172851562 379.72265625 411.782226562 c 4
 382.118164062 409.390625 385.064453125 407.590820312 388.201171875 406.321289062 c 4
 394.475585938 403.780273438 401.377929688 403.344726562 408.142578125 403.122070312 c 4
 465.166015625 401.241210938 523.4453125 412.772460938 572.452148438 441.985351562 c 4
 621.459960938 471.19921875 660.38671875 519.056640625 673.041992188 574.689453125 c 4
 681.653320312 612.544921875 677.951171875 652.897460938 663.896484375 689.086914062 c 4
 649.841796875 725.276367188 625.635742188 757.26953125 595.508789062 781.754882812 c 4
 532.801757812 832.71875 445.723632812 849.375 366.62890625 832.837890625 c 4
 328.944335938 824.958984375 291.610351562 809.227539062 265.616210938 780.830078125 c 4
375.788085938 431.975585938 m 4
 373.435546875 427.604492188 372.619140625 422.46875 373.245117188 417.544921875 c 4
 373.87109375 412.620117188 375.905273438 407.916015625 378.859375 403.926757812 c 4
 384.768554688 395.94921875 394.104492188 391.038085938 403.751953125 388.6953125 c 4
 423.045898438 384.010742188 443.48046875 388.708984375 463.094726562 385.625976562 c 4
 481.297851562 382.764648438 498.115234375 373.141601562 510.979492188 359.948242188 c 4
 523.842773438 346.754882812 532.889648438 330.133789062 538.548828125 312.59765625 c 4
 552.51171875 269.325195312 545.6640625 220.620117188 523.821289062 180.741210938 c 4
 501.977539062 140.861328125 466.032226562 109.623046875 425.193359375 89.6318359375 c 4
 372.443359375 63.8095703125 312.630859375 56.232421875 253.92578125 54.4521484375 c 4
 195.221679688 52.671875 136.326171875 56.3056640625 77.8125 51.2509765625 c 4
 66.8974609375 50.3076171875 55.58984375 48.923828125 46.296875 43.1220703125 c 4
 41.650390625 40.220703125 37.619140625 36.2109375 35.1669921875 31.3125 c 4
 32.71484375 26.4150390625 31.9326171875 20.599609375 33.513671875 15.3544921875 c 4
 34.8056640625 11.068359375 37.61328125 7.3154296875 41.1357421875 4.552734375 c 4
 44.658203125 1.7900390625 48.8701171875 -0.015625 53.2255859375 -1.0517578125 c 4
 61.9365234375 -3.1220703125 71.0390625 -2.1728515625 79.9599609375 -1.4052734375 c 4
 192.046875 8.234375 308.221679688 -12.48828125 415.423828125 21.6318359375 c 4
 465.405273438 37.5400390625 511.793945312 65.3525390625 548.017578125 103.287109375 c 4
 584.2421875 141.22265625 610.057617188 189.346679688 619.77734375 240.890625 c 4
 624.080078125 263.703125 625.251953125 287.288085938 621.122070312 310.1328125 c 4
 616.991210938 332.9765625 607.374023438 355.081054688 591.869140625 372.357421875 c 4
 572.7734375 393.634765625 545.977539062 406.485351562 518.763671875 415.2421875 c 4
 491.548828125 423.999023438 463.279296875 429.1875 436.129882812 438.143554688 c 4
 425.631835938 441.606445312 415.083984375 445.673828125 404.032226562 445.92578125 c 4
 398.506835938 446.052734375 392.903320312 445.1875 387.872070312 442.900390625 c 4
 382.83984375 440.61328125 378.40625 436.842773438 375.788085938 431.975585938 c 4
EndSplineSet
Validated: 524325
EndChar

StartChar: S
Encoding: 83 83 38
Width: 668
VWidth: 0
Flags: HW
LayerCount: 2
UndoRedoHistory
Layer: 1
Undoes
EndUndoes
Redoes
EndRedoes
EndUndoRedoHistory
Fore
SplineSet
641.427734375 708.821289062 m 0
 641.112304688 702.829101562 638.642578125 697.01953125 634.774414062 692.432617188 c 0
 630.90625 687.845703125 625.684570312 684.467773438 620.006835938 682.526367188 c 0
 608.65234375 678.641601562 595.908203125 680.55078125 584.998046875 685.549804688 c 0
 574.705078125 690.265625 565.791992188 697.544921875 557.64453125 705.408203125 c 0
 549.498046875 713.270507812 541.998046875 721.787109375 533.748046875 729.541015625 c 0
 513.88671875 748.208984375 489.520507812 762.348632812 463.021484375 768.732421875 c 0
 436.522460938 775.116210938 407.905273438 773.508789062 382.88671875 762.690429688 c 0
 356.211914062 751.155273438 334.420898438 729.4609375 321.040039062 703.663085938 c 0
 307.66015625 677.864257812 302.470703125 648.1796875 304.353515625 619.178710938 c 0
 306.364257812 588.202148438 316.205078125 558.10546875 329.904296875 530.25 c 0
 343.602539062 502.39453125 361.1171875 476.600585938 379.24609375 451.40234375 c 0
 415.50390625 401.006835938 455.282226562 350.990234375 472.447265625 291.327148438 c 0
 493.186523438 219.239257812 476.76953125 137.775390625 430.731445312 78.5537109375 c 0
 384.693359375 19.3310546875 310.4453125 -16.5576171875 235.436523438 -17.13671875 c 0
 196.23046875 -17.439453125 156.797851562 -8.4638671875 122.299804688 10.1640625 c 0
 87.8017578125 28.7919921875 58.40625 57.193359375 39.9482421875 91.783203125 c 0
 34.7216796875 101.577148438 30.3466796875 111.899414062 27.94921875 122.73828125 c 0
 25.5517578125 133.578125 25.1826171875 144.975585938 27.875 155.745117188 c 0
 30.568359375 166.514648438 36.4453125 176.622070312 45.1259765625 183.541992188 c 0
 53.8056640625 190.461914062 65.3583984375 193.966796875 76.2998046875 192.090820312 c 0
 86.59765625 190.32421875 95.7568359375 183.986328125 102.305664062 175.845703125 c 0
 108.854492188 167.705078125 112.987304688 157.857421875 115.798828125 147.794921875 c 0
 121.421875 127.670898438 122.126953125 106.109375 130.607421875 87.0126953125 c 0
 141.3984375 62.7109375 164.169921875 44.93359375 189.403320312 36.5517578125 c 0
 214.63671875 28.1689453125 242.116210938 28.458984375 268.25390625 33.3408203125 c 0
 297.885742188 38.8740234375 326.606445312 50.3251953125 350.840820312 68.251953125 c 0
 375.075195312 86.1787109375 394.6796875 110.7265625 405.083007812 139.018554688 c 0
 416.485351562 170.025390625 416.533203125 204.474609375 409.079101562 236.659179688 c 0
 401.624023438 268.84375 386.974609375 298.979492188 369.670898438 327.122070312 c 0
 335.063476562 383.407226562 289.387695312 433.077148438 261.87109375 493.1484375 c 0
 239.44921875 542.09765625 229.98828125 597.532226562 238.956054688 650.620117188 c 0
 247.923828125 703.708007812 276.015625 754.053710938 318.985351562 786.493164062 c 0
 364.383789062 820.766601562 424.592773438 833.459960938 480.670898438 823.927734375 c 0
 536.75 814.395507812 588.338867188 783.53125 626.078125 740.970703125 c 0
 630.123046875 736.408203125 634.046875 731.674804688 636.9609375 726.319335938 c 0
 639.875 720.963867188 641.749023438 714.91015625 641.427734375 708.821289062 c 0
EndSplineSet
Validated: 524321
EndChar

StartChar: Q
Encoding: 81 81 39
Width: 650
VWidth: 0
Flags: HW
LayerCount: 2
UndoRedoHistory
Layer: 1
Undoes
EndUndoes
Redoes
EndRedoes
EndUndoRedoHistory
Fore
SplineSet
482.061523438 788.818359375 m 4
 483.596679688 793.216796875 483.298828125 798.15625 481.596679688 802.4921875 c 4
 479.895507812 806.828125 476.852539062 810.571289062 473.185546875 813.443359375 c 4
 465.8515625 819.188476562 456.380859375 821.393554688 447.145507812 822.618164062 c 4
 409.067382812 827.670898438 369.987304688 818.48046875 335.625 801.311523438 c 4
 301.262695312 784.142578125 271.24609375 759.311523438 244.034179688 732.200195312 c 4
 146.729492188 635.258789062 83.1650390625 508.026367188 47.76953125 375.3125 c 4
 30.791015625 311.65234375 19.9208984375 245.05078125 29.689453125 179.892578125 c 4
 34.5732421875 147.313476562 44.6689453125 115.366210938 60.94140625 86.72265625 c 4
 77.2138671875 58.0791015625 99.771484375 32.8017578125 127.370117188 14.8134765625 c 4
 165.176757812 -9.828125 211.590820312 -20.0234375 256.591796875 -16.6298828125 c 4
 301.592773438 -13.236328125 345.125 3.3046875 382.889648438 28.01171875 c 4
 458.419921875 77.42578125 509.240234375 156.897460938 546.842773438 238.94921875 c 4
 592.8984375 339.4453125 622.700195312 448.573242188 623.115234375 559.118164062 c 4
 623.255859375 596.75390625 619.4375 636.153320312 599.055664062 667.79296875 c 4
 582.166015625 694.012695312 555.201171875 712.500976562 526.370117188 724.395507812 c 4
 520.16796875 726.954101562 513.782226562 729.2578125 507.118164062 730.033203125 c 4
 500.455078125 730.809570312 493.432617188 729.955078125 487.659179688 726.540039062 c 4
 483.780273438 724.24609375 480.572265625 720.838867188 478.499023438 716.838867188 c 4
 476.42578125 712.837890625 475.493164062 708.2578125 475.818359375 703.763671875 c 4
 476.233398438 698.051757812 478.647460938 692.599609375 482.080078125 688.015625 c 4
 485.512695312 683.431640625 489.930664062 679.663085938 494.635742188 676.3984375 c 4
 504.045898438 669.869140625 514.74609375 665.189453125 523.431640625 657.723632812 c 4
 533.80078125 648.810546875 540.69140625 636.36328125 544.75 623.3046875 c 4
 548.807617188 610.247070312 550.204101562 596.518554688 550.998046875 582.8671875 c 4
 558.663085938 451.01171875 511.94140625 321.677734375 451.323242188 204.33203125 c 4
 424.89453125 153.170898438 394.555664062 102.104492188 348.9296875 66.9736328125 c 4
 326.116210938 49.408203125 299.647460938 36.197265625 271.373046875 30.7626953125 c 4
 243.098632812 25.328125 212.990234375 27.9482421875 186.95703125 40.24609375 c 4
 164.668945312 50.7734375 145.889648438 68.1044921875 132.221679688 88.6181640625 c 4
 118.553710938 109.130859375 109.873046875 132.743164062 105.353515625 156.974609375 c 5
 95.72265625 205.4375 103.647460938 255.408203125 113.809570312 303.654296875 c 5
 140.749023438 431.887695312 188.374023438 557.763671875 268.765625 661.235351562 c 4
 290.43359375 689.124023438 314.60546875 715.459960938 343.461914062 735.8203125 c 4
 372.318359375 756.180664062 406.208984375 770.37890625 441.477539062 772.200195312 c 4
 449.267578125 772.603515625 457.19140625 772.420898438 464.708007812 774.505859375 c 4
 468.465820312 775.547851562 472.096679688 777.16796875 475.178710938 779.557617188 c 4
 478.260742188 781.947265625 480.776367188 785.13671875 482.061523438 788.818359375 c 4
211.567382812 175.96875 m 4
 203.893554688 175.87890625 195.99609375 175.469726562 189.016601562 172.27734375 c 4
 185.52734375 170.680664062 182.3203125 168.383789062 179.9296875 165.381835938 c 4
 177.5390625 162.37890625 175.998046875 158.649414062 175.885742188 154.813476562 c 4
 175.739257812 149.8203125 178.038085938 144.931640625 181.545898438 141.375 c 4
 185.0546875 137.818359375 189.682617188 135.510742188 194.498046875 134.1796875 c 4
 204.12890625 131.51953125 214.346679688 132.6015625 224.306640625 131.80859375 c 4
 247.038085938 129.999023438 267.942382812 118.416992188 285.861328125 104.314453125 c 4
 308.698242188 86.3427734375 327.767578125 64.1142578125 348.947265625 44.216796875 c 4
 370.126953125 24.3203125 394.377929688 6.2841796875 422.647460938 -0.4443359375 c 4
 449.493164062 -6.8330078125 477.967773438 -2.4482421875 503.95703125 6.8251953125 c 4
 529.947265625 16.0986328125 553.952148438 30.0693359375 578.08984375 43.443359375 c 4
 584.440429688 46.962890625 591.005859375 50.6103515625 595.392578125 56.3955078125 c 4
 597.5859375 59.2880859375 599.172851562 62.6953125 599.607421875 66.2998046875 c 4
 600.04296875 69.9033203125 599.265625 73.7041015625 597.149414062 76.6533203125 c 4
 595.72265625 78.6435546875 593.73046875 80.2001953125 591.512695312 81.23828125 c 4
 589.294921875 82.2763671875 586.856445312 82.806640625 584.411132812 82.931640625 c 4
 576.938476562 83.3134765625 569.825195312 80.015625 563.08984375 76.7587890625 c 4
 548.060546875 69.490234375 533.061523438 62.0146484375 517.220703125 56.7470703125 c 4
 501.37890625 51.478515625 484.529296875 48.458984375 467.947265625 50.3876953125 c 4
 442.440429688 53.3544921875 419.681640625 67.6689453125 399.633789062 83.71484375 c 4
 366.451171875 110.2734375 337.165039062 143.05859375 298.373046875 160.424804688 c 4
 271.331054688 172.530273438 241.193359375 176.31640625 211.567382812 175.96875 c 4
EndSplineSet
Validated: 524325
EndChar
